<?xml version="1.0" standalone="no"?>
<!DOCTYPE svg PUBLIC "-//W3C//DTD SVG 1.1//EN" "http://www.w3.org/Graphics/SVG/1.1/DTD/svg11.dtd" >
<svg xmlns="http://www.w3.org/2000/svg" xmlns:xlink="http://www.w3.org/1999/xlink" version="1.1">
<metadata>
Created by FontForge 20150318 at Fri Jun 12 16:57:34 2015
 By uniteet7
Typeface (c) (your company). 2009. All Rights Reserved
</metadata>
<defs>
<font id="Polihymnia" horiz-adv-x="1014" >
  <font-face 
    font-family="Polihymnia"
    font-weight="400"
    font-stretch="normal"
    units-per-em="2048"
    panose-1="2 0 5 0 0 0 0 0 0 0"
    ascent="1638"
    descent="-410"
    x-height="219"
    bbox="-342 -2176.94 2792 2286"
    underline-thickness="150"
    underline-position="-142"
    unicode-range="U+0020-F002"
  />
<missing-glyph horiz-adv-x="1024" 
d="M100 0v1434h824v-1434h-824zM150 50h724v1334h-724v-1334zM325 1148q31 28 58 43q53 30 112 30q92 0 148 -47.5t56 -127.5q0 -49 -23 -98.5t-87 -129.5q-63 -80 -99 -132t-36 -99q0 -38 24 -133h-32q-35 97 -35 148q0 76 81.5 218t81.5 217q0 57 -33 90t-91 33
q-38 0 -69 -17q-26 -15 -56 -40v45zM389 334l57 58q11 10 20 10q10 0 22 -11l56 -60q9 -11 9 -20q0 -11 -10 -22l-56 -62q-14 -14 -21 -14q-11 0 -20 10l-61 71q-7 9 -7 18q0 10 11 22z" />
    <glyph glyph-name=".notdef" horiz-adv-x="1024" 
d="M100 0v1434h824v-1434h-824zM150 50h724v1334h-724v-1334zM325 1148q31 28 58 43q53 30 112 30q92 0 148 -47.5t56 -127.5q0 -49 -23 -98.5t-87 -129.5q-63 -80 -99 -132t-36 -99q0 -38 24 -133h-32q-35 97 -35 148q0 76 81.5 218t81.5 217q0 57 -33 90t-91 33
q-38 0 -69 -17q-26 -15 -56 -40v45zM389 334l57 58q11 10 20 10q10 0 22 -11l56 -60q9 -11 9 -20q0 -11 -10 -22l-56 -62q-14 -14 -21 -14q-11 0 -20 10l-61 71q-7 9 -7 18q0 10 11 22z" />
    <glyph glyph-name=".null" horiz-adv-x="0" 
 />
    <glyph glyph-name="nonmarkingreturn" horiz-adv-x="508" 
 />
    <glyph glyph-name="space" unicode=" " horiz-adv-x="508" 
 />
    <glyph glyph-name="space" unicode="&#xa0;" horiz-adv-x="508" 
 />
    <glyph glyph-name="exclam" unicode="!" horiz-adv-x="0" 
d="M2 282q10 48 37.5 89t62.5 71.5t75.5 59.5t78.5 59t69.5 63.5t50.5 79.5t19 101q0 48 -8 89.5t-23 75.5t-36.5 68.5t-48 69t-58.5 76.5q-11 14 16.5 27.5t39.5 -0.5q103 -121 143.5 -207.5t40.5 -215.5q0 -65 -21.5 -125.5t-57 -111.5t-79 -100.5t-90.5 -102t-88 -106.5
t-74.5 -123.5t-48.5 -143.5v307z" />
    <glyph glyph-name="quotedbl" unicode="&#x22;" horiz-adv-x="672" 
d="M197 1108h-30l-62 359q-4 23 -4 33q0 37 20.5 57t59.5 20t60.5 -19.5t21.5 -56.5q0 -8 -4 -34zM509 1108h-30l-62 359q-4 23 -4 33q0 37 20.5 57t59.5 20t60.5 -19.5t21.5 -56.5q0 -8 -4 -34z" />
    <glyph glyph-name="numbersign" unicode="#" horiz-adv-x="0" 
d="M74 -5v-35q9 42 35.5 76t61.5 58t75.5 46.5t79.5 46.5t70.5 52.5t51 70.5t19.5 95q0 38 -5 73q-37 -48 -103.5 -103.5t-119.5 -95.5t-101.5 -101.5t-63.5 -128.5v216q10 48 44 86.5t77 62t91.5 51.5t88.5 55.5t66 74t26 106.5q0 51 -7 85q-31 -41 -80.5 -84.5t-95 -79.5
t-89.5 -75.5t-76.5 -89t-44.5 -104.5v216q9 42 35.5 76t61.5 58t75.5 46.5t79.5 46.5t70.5 52.5t51 70.5t19.5 95q0 46 -9.5 80t-35.5 66.5t-51.5 55.5t-77.5 64q-14 11 13.5 24.5t42.5 2.5q107 -78 145.5 -142t38.5 -168q0 -71 -28 -137q25 -65 28 -175q1 -67 -25 -129
q25 -66 25 -168q0 -65 -22 -121.5t-58.5 -99t-81.5 -81.5t-92 -76.5t-88 -75.5t-73 -86.5t-44 -102.5h-70v250h70z" />
    <glyph glyph-name="dollar" unicode="$" horiz-adv-x="0" 
d="M-4 1v-35q9 42 35.5 76t61.5 58t75.5 46.5t79.5 46.5t70.5 52.5t51 70.5t19.5 95q0 38 -5 73q-37 -48 -103.5 -103.5t-119.5 -95.5t-101.5 -101.5t-63.5 -128.5v216q10 48 44 86.5t77 62t91.5 51.5t88.5 55.5t66 74t26 106.5q0 51 -7 85q-31 -41 -80.5 -84.5t-95 -79.5
t-89.5 -75.5t-76.5 -89t-44.5 -104.5v216q9 42 35.5 76t61.5 58t75.5 46.5t79.5 46.5t70.5 52.5t51 70.5t19.5 95q0 46 -9.5 80t-35.5 66.5t-51.5 55.5t-77.5 64q-14 11 13.5 24.5t42.5 2.5q107 -78 145.5 -142t38.5 -168q0 -71 -28 -137q25 -65 28 -175q1 -67 -25 -129
q25 -66 25 -168q0 -71 -27 -133q27 -68 27 -171q0 -65 -22 -121.5t-58.5 -99t-81.5 -81.5t-92 -77t-88 -75.5t-73 -86.5t-44 -103h-70v555h70zM31.5 -262q26.5 34 61.5 58t75.5 46.5t79.5 46.5t70.5 52.5t51 70.5t19.5 95q0 45 -6 78q-31 -41 -80.5 -85t-95 -79.5t-90 -75.5
t-77 -89.5t-44.5 -104.5v-89q9 42 35.5 76z" />
    <glyph glyph-name="percent" unicode="%" horiz-adv-x="0" 
d="M14 4v-35q9 42 35.5 76t61.5 58t75.5 46.5t79.5 46.5t70.5 52.5t51 70.5t19.5 95q0 38 -5 73q-37 -48 -103.5 -103.5t-119.5 -95.5t-101.5 -101.5t-63.5 -128.5v216q10 48 44 86.5t77 62t91.5 51.5t88.5 55.5t66 74t26 106.5q0 51 -7 85q-31 -41 -80.5 -84.5t-95 -79.5
t-89.5 -75.5t-76.5 -89t-44.5 -104.5v216q9 42 35.5 76t61.5 58t75.5 46.5t79.5 46.5t70.5 52.5t51 70.5t19.5 95q0 46 -9.5 80t-35.5 66.5t-51.5 55.5t-77.5 64q-14 11 13.5 24.5t42.5 2.5q107 -78 145.5 -142t38.5 -168q0 -71 -28 -137q25 -65 28 -175q1 -67 -25 -129
q25 -66 25 -168q0 -71 -27 -133q27 -68 27 -171q0 -71 -27 -133q27 -68 27 -172q0 -65 -22 -121.5t-58.5 -99t-81.5 -81.5t-92 -76.5t-88 -75.5t-73 -86.5t-44 -102.5h-70v859h70zM49.5 -564q26.5 34 61.5 58t75.5 46.5t79.5 46.5t70.5 52.5t51 70.5t19.5 95q0 45 -6 79
q-31 -41 -80.5 -85t-95 -80t-90 -76t-77 -89.5t-44.5 -104.5v-89q9 42 35.5 76zM49.5 -259q26.5 34 61.5 58t75.5 46.5t79.5 46.5t70.5 52.5t51 70.5t19.5 95q0 45 -6 78q-31 -41 -80.5 -85t-95 -79.5t-90 -75.5t-77 -89.5t-44.5 -104.5v-89q9 42 35.5 76z" />
    <glyph glyph-name="ampersand" unicode="&#x26;" horiz-adv-x="1683" 
d="M1051 196l-554 683q-118 0 -179.5 -86t-61.5 -204q0 -91 35.5 -181.5t101.5 -164.5q72 -83 165 -127t194 -44q88 0 169 33.5t130 90.5zM1394 0q-56 0 -139 25t-167 132q-67 -74 -175 -123.5t-241 -49.5q-229 0 -374.5 150.5t-145.5 385.5q0 161 76 266.5t225 151.5
q-42 61 -62.5 116t-20.5 111q0 105 77 197t182 92q68 0 142 -39q9 -6 18 -6q23 0 38 45h46l96 -281h-46q-55 133 -155 178q-85 37 -141 37q-65 0 -106 -45.5t-41 -117.5q0 -131 102 -267l531 -670q98 146 121 244q17 78 17 130q0 97 -62 97h-90v50h443v-50h-90
q-95 0 -145 -227q-31 -132 -155 -292q109 -136 248 -136h16q143 17 192 128l49 -1l-103 -231h-160z" />
    <glyph glyph-name="quotesingle" unicode="'" horiz-adv-x="346" 
d="M197 1108h-30l-62 359q-4 23 -4 33q0 37 20.5 57t59.5 20t60.5 -19.5t21.5 -56.5q0 -8 -4 -34z" />
    <glyph glyph-name="parenleft" unicode="(" horiz-adv-x="758" 
d="M252 601q2 277 99.5 530t268.5 442h80q-172 -242 -230 -438q-57 -193 -57 -523v-22q0 -330 57 -522q58 -196 230 -438h-80q-171 189 -268.5 441.5t-99.5 529.5z" />
    <glyph glyph-name="parenright" unicode=")" horiz-adv-x="758" 
d="M138 -370h-80q172 242 230 438q57 192 57 522v22q0 330 -57 523q-58 196 -230 438h80q171 -189 268.5 -442t99.5 -530q-2 -277 -99.5 -529.5t-268.5 -441.5z" />
    <glyph glyph-name="asterisk" unicode="*" horiz-adv-x="1514" 
d="M643 -5q0 -45 32.5 -77t77.5 -32t77 32t32 77t-32 77t-77 32t-77.5 -32t-32.5 -77zM771 239q0 -19 42.5 -41.5t76.5 -22.5q18 0 26 8q27 27 27 67q0 11 -2.5 35t-2.5 36q0 52 39 91q37 37 83 37q53 0 100 -46.5t47 -101.5q0 -46 -37 -82q-38 -39 -92 -39q-13 0 -37.5 3
t-35.5 3q-40 0 -63 -29q-14 -15 -14 -40q0 -35 23.5 -69.5t46.5 -34.5q26 0 46 12t33.5 29.5t28 35t39 30t58.5 12.5q59 0 91 -39.5t32 -97.5t-32 -97.5t-91 -39.5q-34 0 -59 12.5t-40 30t-28.5 35t-33 29.5t-44.5 12q-20 0 -42 -42t-22 -76q0 -18 8 -26q27 -28 67 -28
q11 0 34.5 3t36.5 3q51 0 90 -39q37 -37 37 -83q0 -54 -46.5 -100.5t-100.5 -46.5q-46 0 -82 36q-40 39 -40 92q0 14 3 38.5t3 35.5q0 39 -28 63q-16 13 -40 13q-36 0 -70.5 -23t-34.5 -46q0 -25 12 -44.5t29.5 -33t35 -28.5t29.5 -40.5t12 -59.5q0 -58 -39.5 -90t-97.5 -32
t-97.5 32t-39.5 90q0 34 12.5 59t30 39.5t35 28t29.5 33t12 46.5q0 23 -34.5 46t-69.5 23q-25 0 -40 -13q-29 -24 -29 -63q0 -11 3 -35.5t3 -38.5q0 -53 -39 -92q-36 -36 -82 -36q-55 0 -101.5 46.5t-46.5 100.5q0 46 37 83q39 39 91 39q12 0 36 -3t35 -3q40 0 67 28
q8 8 8 26q0 34 -22.5 76t-41.5 42q-25 0 -44.5 -12t-33 -29.5t-29 -35t-40.5 -30t-59 -12.5q-58 0 -90 39.5t-32 97.5t32 97.5t90 39.5q34 0 59 -12.5t39.5 -30t28 -35t33 -29.5t46.5 -12q23 0 46 34.5t23 69.5q0 25 -13 40q-24 29 -63 29q-11 0 -35.5 -3t-38.5 -3
q-53 0 -92 39q-36 36 -36 82q0 55 46.5 101.5t100.5 46.5q46 0 83 -37q39 -39 39 -91q0 -12 -3 -36t-3 -35q0 -40 28 -67q8 -8 26 -8q34 0 76 22.5t42 41.5q0 26 -12 46t-29.5 33.5t-35 28t-29.5 39.5t-12 59q0 58 39.5 89.5t97 31.5t97.5 -31.5t40 -89.5q0 -34 -12.5 -59.5
t-30 -40.5t-34.5 -28.5t-29.5 -33t-12.5 -44.5z" />
    <glyph glyph-name="plus" unicode="+" 
d="M437 647h-350v140h350v369l1 1h139v-370h349l1 -1v-139h-350v-370h-140v370z" />
    <glyph glyph-name="comma" unicode="," horiz-adv-x="557" 
d="M238 258q44 0 88.5 -65.5t44.5 -151.5q0 -109 -71 -226.5t-139 -117.5v43q73 43 87 190q0 119 -129 161v42z" />
    <glyph glyph-name="hyphen" unicode="-" horiz-adv-x="670" 
d="M156 409q-40 0 -40 28v83q0 29 41 29h356q41 0 41 -29v-83q0 -28 -40 -28h-358z" />
    <glyph glyph-name="hyphen" unicode="&#xad;" horiz-adv-x="670" 
d="M156 409q-40 0 -40 28v83q0 29 41 29h356q41 0 41 -29v-83q0 -28 -40 -28h-358z" />
    <glyph glyph-name="period" unicode="." horiz-adv-x="0" 
d="M-92 -10q0 41 29.5 70.5t70.5 29.5t70.5 -29.5t29.5 -70.5t-29.5 -70.5t-70.5 -29.5t-70.5 29.5t-29.5 70.5z" />
    <glyph glyph-name="slash" unicode="/" horiz-adv-x="1583" 
d="M711 -994q-40 -19 -64.5 -49.5t-24.5 -63.5q0 -57 30 -83t79 -26t79 26t30 83q0 61 -129 113zM747 -951q42 17 60 37.5t18 57.5q0 40 -27.5 63t-66.5 23t-66.5 -23t-27.5 -63q0 -22 8.5 -38t26.5 -26.5t33 -16.5t42 -14zM787 -966q46 -23 75.5 -62t29.5 -79
q0 -136 -161 -136t-161 136q0 37 29 72t74 56q-41 18 -62 45t-21 78q0 49 43 81t98 32t98 -32t43 -81q0 -45 -22.5 -70t-62.5 -40zM1226 -195q0 41 29 70.5t70.5 29.5t71 -29.5t29.5 -70.5t-29.5 -70.5t-71 -29.5t-70.5 29.5t-29 70.5zM1226 203q0 41 29 70.5t70.5 29.5
t71 -29.5t29.5 -70.5t-29.5 -70.5t-71 -29.5t-70.5 29.5t-29 70.5zM445 -113q-84 0 -136 48.5t-52 146.5q0 63 20 118.5t63 104.5t121.5 78t184.5 29q103 0 188 -30.5t141.5 -85t87.5 -128.5t31 -161q0 -96 -21.5 -181t-59 -156t-99.5 -136.5t-132 -119.5t-167 -109.5
t-194.5 -102t-225.5 -100.5q-4 -2 -8 -2q-17 0 -34 22t-17 37q0 6 4 8q334 156 516 364.5t182 460.5q0 162 -49.5 253.5t-146.5 91.5q-61 0 -109 -11t-77.5 -28.5t-51 -42.5t-31.5 -48t-16 -50q33 5 86 5q177 0 177 -143q0 -132 -175 -132z" />
    <glyph glyph-name="zero" unicode="0" horiz-adv-x="985" 
d="M539 216q220 0 220 -146q0 -122 -107 -205t-243 -83q-220 0 -220 146q0 122 106.5 205t243.5 83z" />
    <glyph glyph-name="one" unicode="1" horiz-adv-x="0" 
d="M2 29q15 -74 48.5 -143.5t74.5 -123.5t88 -106.5t90.5 -102t79 -100.5t57 -111.5t21.5 -125.5q0 -129 -40.5 -215.5t-143.5 -207.5q-12 -14 -39.5 -0.5t-16.5 27.5q32 42 58.5 76.5t48 69t36.5 68.5t23 75.5t8 89.5q0 55 -19 101t-50.5 79.5t-69.5 63.5t-78.5 59
t-75.5 59.5t-62.5 71.5t-37.5 89v307z" />
    <glyph glyph-name="two" unicode="2" horiz-adv-x="0" 
d="M2 5q12 -54 44 -102.5t73 -86.5t88 -75.5t92 -76.5t81.5 -81.5t58.5 -99.5t22 -122q0 -116 -33 -186q33 -63 33 -142q0 -135 -38.5 -208.5t-145.5 -151.5q-15 -11 -42.5 2.5t-13.5 24.5q49 39 77 65.5t52.5 63.5t34.5 81.5t10 105.5q0 72 -36.5 119.5t-90 72.5t-109 47.5
t-100.5 60.5t-57 95v216q12 -54 44 -100t75.5 -81.5t88 -65.5t94 -67t80.5 -73q11 44 11 105t-26 108t-66 75.5t-88.5 57.5t-91.5 53t-77 63t-44 87v216z" />
    <glyph glyph-name="three" unicode="3" horiz-adv-x="0" 
d="M-74 -251v250h70q12 -54 44 -102.5t73 -86.5t88 -75.5t92 -76.5t81.5 -81.5t58.5 -99t22 -121.5q0 -102 -25 -168q26 -62 25 -129q-3 -110 -28 -175q28 -66 28 -137q0 -104 -38.5 -168t-145.5 -142q-15 -11 -42.5 2.5t-13.5 24.5q52 41 77.5 64t51.5 55.5t35.5 66.5
t9.5 80q0 53 -19.5 95t-51 70.5t-70.5 52.5t-79.5 46.5t-75.5 46.5t-61.5 58t-35.5 76v216q12 -55 44.5 -104.5t76.5 -89t89.5 -75.5t95 -79.5t80.5 -84.5q7 34 7 85q0 60 -26 106.5t-66 74t-88.5 55.5t-91.5 51.5t-77 62t-44 86.5v216q15 -67 63.5 -128.5t101.5 -101.5
t119.5 -95.5t103.5 -103.5q5 35 5 73q0 53 -19.5 95t-51 70.5t-70.5 52.5t-79.5 46.5t-75.5 46.5t-61.5 58t-35.5 76v-35h-70z" />
    <glyph glyph-name="four" unicode="4" horiz-adv-x="0" 
d="M-74 -558v555h70q12 -54 44 -103t73 -86.5t88 -75.5t92 -77t81.5 -81.5t58.5 -99t22 -121.5q0 -103 -27 -171q27 -62 27 -133q0 -102 -25 -168q26 -62 25 -129q-3 -110 -28 -175q28 -66 28 -137q0 -104 -38.5 -168t-145.5 -142q-15 -11 -42.5 2.5t-13.5 24.5
q52 41 77.5 64t51.5 55.5t35.5 66.5t9.5 80q0 53 -19.5 95t-51 70.5t-70.5 52.5t-79.5 46.5t-75.5 46.5t-61.5 58t-35.5 76v216q12 -55 44.5 -104.5t76.5 -89t89.5 -75.5t95 -79.5t80.5 -84.5q7 34 7 85q0 60 -26 106.5t-66 74t-88.5 55.5t-91.5 51.5t-77 62t-44 86.5v216
q15 -67 63.5 -128.5t101.5 -101.5t119.5 -95.5t103.5 -103.5q5 35 5 73q0 53 -19.5 95t-51 70.5t-70.5 52.5t-79.5 46.5t-75.5 46.5t-61.5 58t-35.5 76v-35h-70zM-4 -219v-89q12 -55 44.5 -104.5t77 -89.5t90 -75.5t95 -79.5t80.5 -85q6 33 6 78q0 53 -19.5 95t-51 70.5
t-70.5 52.5t-79.5 46.5t-75.5 46.5t-61.5 58t-35.5 76z" />
    <glyph glyph-name="five" unicode="5" horiz-adv-x="0" 
d="M-69 -860v859h70q12 -54 44 -102.5t73 -86.5t88 -75.5t92 -76.5t81.5 -81.5t58.5 -99t22 -121.5q0 -104 -27 -172q27 -62 27 -133q0 -103 -27 -171q27 -62 27 -133q0 -102 -25 -168q26 -62 25 -129q-3 -110 -28 -175q28 -66 28 -137q0 -104 -38.5 -168t-145.5 -142
q-15 -11 -42.5 2.5t-13.5 24.5q52 41 77.5 64t51.5 55.5t35.5 66.5t9.5 80q0 53 -19.5 95t-51 70.5t-70.5 52.5t-79.5 46.5t-75.5 46.5t-61.5 58t-35.5 76v216q12 -55 44.5 -104.5t76.5 -89t89.5 -75.5t95 -79.5t80.5 -84.5q7 34 7 85q0 60 -26 106.5t-66 74t-88.5 55.5
t-91.5 51.5t-77 62t-44 86.5v216q15 -67 63.5 -128.5t101.5 -101.5t119.5 -95.5t103.5 -103.5q5 35 5 73q0 53 -19.5 95t-51 70.5t-70.5 52.5t-79.5 46.5t-75.5 46.5t-61.5 58t-35.5 76v-35h-70zM1 -216v-89q12 -55 44.5 -104.5t77 -89.5t90 -76t95 -80t80.5 -85q6 34 6 79
q0 53 -19.5 95t-51 70.5t-70.5 52.5t-79.5 46.5t-75.5 46.5t-61.5 58t-35.5 76zM1 -521v-89q12 -55 44.5 -104.5t77 -89.5t90 -75.5t95 -79.5t80.5 -85q6 33 6 78q0 53 -19.5 95t-51 70.5t-70.5 52.5t-79.5 46.5t-75.5 46.5t-61.5 58t-35.5 76z" />
    <glyph glyph-name="six" unicode="6" 
d="M558 11q101 0 163 98.5t62 247.5q0 203 -100 333.5t-216 130.5q-91 0 -163 -101.5t-72 -250.5q0 -153 95.5 -305.5t230.5 -152.5zM801 1459v-48q-177 -12 -326.5 -179.5t-233.5 -467.5q96 93 266 93q108 0 211 -57t161 -162.5t58 -221.5t-56.5 -220.5t-144 -162.5
t-169.5 -58q-243 0 -366.5 162.5t-123.5 372.5q0 320 209 634.5t515 314.5z" />
    <glyph glyph-name="seven" unicode="7" 
d="M737 1314h-399q-133 0 -192 -112h-50l103 232h719l-1 -50q-370 -866 -370 -1205q0 -129 67 -129h117v-50h-411v50h67q72 0 72 131q19 296 278 1133z" />
    <glyph glyph-name="eight" unicode="8" 
d="M552 830q121 25 156 124q27 75 27 140q0 20 -3 39q-12 81 -52.5 154t-99.5 110q-55 33 -106 33h-9q-57 -3 -105.5 -46t-68.5 -119q-13 -49 -13 -100q0 -28 4 -57q12 -80 51.5 -152t218.5 -126zM472 785q-114 -21 -181 -157q-56 -115 -56 -206q0 -18 2 -35
q14 -104 61.5 -196.5t118.5 -140.5q64 -44 128 -44h13q70 4 127.5 60t81.5 153q15 62 15 127q0 36 -5 73q-11 112 -73.5 212.5t-231.5 153.5zM636 811q42 -14 82 -35q103 -56 161 -158.5t58 -214.5t-56.5 -213.5t-159 -158t-214.5 -56.5t-214.5 56.5t-159 158t-56.5 213.5
t57.5 214.5t160.5 158.5q41 21 82 35q-24 9 -48 21q-86 44 -133 123t-47 166t48 167t133.5 123t176.5 43q90 0 176 -43t134 -123t48 -167t-47 -166t-132 -123q-25 -13 -50 -21z" />
    <glyph glyph-name="nine" unicode="9" horiz-adv-x="985" 
d="M539 192q220 0 220 -146q0 -122 -107 -204.5t-243 -82.5q-220 0 -220 146q0 122 106.5 204.5t243.5 82.5zM343 -152q59 0 125.5 33t113.5 76.5t79 86t32 63t-20 32.5t-44 12q-59 0 -125.5 -33t-113.5 -76.5t-79 -86t-32 -63t20 -32.5t44 -12z" />
    <glyph glyph-name="colon" unicode=":" horiz-adv-x="557" 
d="M145 167l82 84q15 14 29 14q13 0 31 -16l80 -86q12 -16 12 -29q0 -15 -14 -31l-80 -88q-20 -20 -29 -20q-16 0 -29 14l-88 101q-10 13 -10 26q0 15 16 31zM145 860l82 84q15 14 29 14q13 0 31 -16l80 -86q12 -16 12 -29q0 -15 -14 -31l-80 -88q-20 -20 -29 -20
q-16 0 -29 14l-88 101q-10 13 -10 26q0 15 16 31z" />
    <glyph glyph-name="semicolon" unicode=";" horiz-adv-x="557" 
d="M145 859l82 84q15 14 29 14q13 0 31 -16l80 -86q12 -16 12 -29q0 -15 -14 -31l-80 -88q-20 -20 -29 -20q-16 0 -29 14l-88 101q-10 13 -10 26q0 15 16 31zM238 258q44 0 88.5 -65.5t44.5 -151.5q0 -109 -71 -226.5t-139 -117.5v43q73 43 87 190q0 119 -129 161v42z" />
    <glyph glyph-name="semicolon" unicode="&#x37e;" horiz-adv-x="557" 
d="M145 859l82 84q15 14 29 14q13 0 31 -16l80 -86q12 -16 12 -29q0 -15 -14 -31l-80 -88q-20 -20 -29 -20q-16 0 -29 14l-88 101q-10 13 -10 26q0 15 16 31zM238 258q44 0 88.5 -65.5t44.5 -151.5q0 -109 -71 -226.5t-139 -117.5v43q73 43 87 190q0 119 -129 161v42z" />
    <glyph glyph-name="less" unicode="&#x3c;" horiz-adv-x="2490" 
d="M200 40l2080 292l10 -69l-1832 -258l1832 -258l-10 -69l-2080 292v70z" />
    <glyph glyph-name="equal" unicode="=" horiz-adv-x="1600" 
d="M0 1240h1600v-46h-1600v46zM0 842h1600v-46h-1600v46zM0 444h1600v-46h-1600v46zM0 46h1600v-46h-1600v46zM0 1638h1600v-46h-1600v46z" />
    <glyph glyph-name="greater" unicode="&#x3e;" horiz-adv-x="2490" 
d="M2313 40v-70l-2080 -292l-10 69l1832 258l-1832 258l10 69z" />
    <glyph glyph-name="question" unicode="?" horiz-adv-x="1583" 
d="M1234 -195q0 41 29 70.5t70.5 29.5t71 -29.5t29.5 -70.5t-29.5 -70.5t-71 -29.5t-70.5 29.5t-29 70.5zM1234 203q0 41 29 70.5t70.5 29.5t71 -29.5t29.5 -70.5t-29.5 -70.5t-71 -29.5t-70.5 29.5t-29 70.5zM453 -113q-84 0 -136 48.5t-52 146.5q0 63 20 118.5t63 104.5
t121.5 78t184.5 29q103 0 188 -30.5t141.5 -85t87.5 -128.5t31 -161q0 -96 -21.5 -181t-59 -156t-99.5 -136.5t-132 -119.5t-167 -109.5t-194.5 -102t-225.5 -100.5q-4 -2 -8 -2q-17 0 -34 22t-17 37q0 6 4 8q334 156 516 364.5t182 460.5q0 162 -49.5 253.5t-146.5 91.5
q-61 0 -109 -11t-77.5 -28.5t-51 -42.5t-31.5 -48t-16 -50q33 5 86 5q177 0 177 -143q0 -132 -175 -132z" />
    <glyph glyph-name="at" unicode="@" horiz-adv-x="0" 
d="M2 211q10 48 44 87t77 63t91.5 53t88.5 57.5t66 75.5t26 108t-11 105q-31 -36 -80.5 -73t-94 -67t-88 -65.5t-75.5 -81.5t-44 -100v216q12 57 57 95t100.5 60.5t109 47.5t90 72.5t36.5 119.5q0 61 -10 105.5t-34.5 81.5t-52.5 63.5t-77 65.5q-14 11 13.5 24.5t42.5 2.5
q107 -78 145.5 -151.5t38.5 -208.5q0 -79 -33 -142q33 -70 33 -186q0 -65 -22 -122t-58.5 -99.5t-81.5 -81.5t-92 -76.5t-88 -75.5t-73 -86.5t-44 -102.5v216z" />
    <glyph glyph-name="A" unicode="A" horiz-adv-x="1540" 
 />
    <glyph glyph-name="B" unicode="B" horiz-adv-x="1100" 
d="M278 102v-256q42 30 70.5 55t55.5 57t40.5 67.5t13.5 74.5q0 68 -50 68q-26 0 -43 -6t-36 -21t-51 -39zM208 -227v1033h70v-629q37 28 55.5 40t50.5 21.5t74 9.5q41 0 70 -19v577h70v-629q37 28 55.5 40t50.5 21.5t74 9.5q66 0 98 -46t32 -113q0 -73 -80.5 -150
t-229.5 -166h-70v187q-73 -82 -250 -187h-70zM598 102v-256q42 30 70.5 55t55.5 57t40.5 67.5t13.5 74.5q0 68 -50 68q-26 0 -43 -6t-36 -21t-51 -39z" />
    <glyph glyph-name="C" unicode="C" horiz-adv-x="986" 
d="M438 594h60v-192q22 2 33 2q133 0 204.5 -67t71.5 -155q0 -106 -41.5 -147t-118.5 -41q-64 0 -96 41t-32 104q0 54 38 88t93 34q30 0 58 -11q-25 41 -71.5 67.5t-110.5 26.5q-14 0 -28 -3v-674q16 -3 34 -3q54 0 100 32.5t69 71t39 70.5l15 33q21 0 43 -4.5t22 -7.5
q0 -22 -18 -62.5t-50.5 -86t-91 -78.5t-128.5 -33q-23 0 -34 1v-191h-60v200q-132 30 -199 138.5t-67 255.5q0 126 72 239.5t194 148.5v203zM438 -308v620q-49 -43 -71 -128t-22 -181q0 -244 93 -311z" />
    <glyph glyph-name="D" unicode="D" horiz-adv-x="1375" 
d="M190 446h984v-46h-250v-352h250v-46h-984v46h250v352h-250v46z" />
    <glyph glyph-name="E" unicode="E" horiz-adv-x="862" 
d="M623 356l72 -33l-237 -709l-71 33l189 570q-110 -95 -250 -95q-62 0 -96.5 36.5t-34.5 99.5q0 55 36.5 96t94.5 41q63 0 92.5 -41t29.5 -96q0 -15 -3 -34q29 4 60 21t56 41.5t38.5 40t23.5 29.5z" />
    <glyph glyph-name="F" unicode="F" horiz-adv-x="1586" 
d="M703 833q-28 -177 -29 -186q-53 -314 -159.5 -488t-223.5 -174q-85 0 -118.5 25.5t-33.5 87.5q0 59 30 97.5t69 38.5q34 0 59 -17.5t25 -48.5q0 -29 -12.5 -47.5t-31.5 -18.5q-21 0 -29.5 -8t-8.5 -23q0 -16 51 -16q46 0 79.5 53t52.5 138.5t37 194t32 218.5
q12 87 36 174h-134v63h152q37 117 86.5 208t114 148.5t130.5 57.5q63 0 107.5 -28.5t44.5 -85.5q0 -58 -30 -96.5t-69 -38.5q-34 0 -59 17.5t-25 48.5q0 28 12.5 47t31.5 19q38 0 38 31q0 7 -16.5 11.5t-34.5 4.5q-33 0 -59 -26t-45.5 -76.5t-32.5 -106t-27 -135.5h303
q38 117 87.5 208t113.5 148.5t131 57.5q62 0 107 -28.5t45 -85.5q0 -58 -30.5 -96.5t-69.5 -38.5q-34 0 -58.5 17.5t-24.5 48.5q0 28 12.5 47t30.5 19q22 0 30 8t8 23q0 7 -16 11.5t-34 4.5q-34 0 -60 -26t-45 -76.5t-32.5 -106t-26.5 -135.5h149v-63h-159
q-28 -178 -30 -186q-53 -314 -159 -488t-223 -174q-86 0 -119 25.5t-33 87.5q0 59 30 97.5t68 38.5q35 0 59.5 -17.5t24.5 -48.5q0 -29 -12.5 -47.5t-30.5 -18.5q-22 0 -30.5 -8t-8.5 -23q0 -16 52 -16q45 0 79 53t53 138.5t36.5 194t31.5 218.5q13 87 36 174h-295z" />
    <glyph glyph-name="G" unicode="G" horiz-adv-x="1376" 
d="M700 -190q-35 3 -64.5 10t-62.5 24t-56 42.5t-38 68.5t-15 100q0 107 52 201t146 136q-8 30 -61 218q-321 -290 -321 -535q0 -91 42.5 -174t105.5 -137t134.5 -85.5t131.5 -31.5q88 0 162 32q-17 74 -38.5 154.5t-56.5 201.5t-51 181q-49 -17 -87 -52t-54.5 -66
t-16.5 -50q0 -97 24 -136t124 -102zM780 230q16 -59 48.5 -170t54.5 -191t40 -152q67 48 104 123.5t37 170.5q0 105 -75.5 162.5t-191.5 57.5q-9 0 -17 -1zM663 664l67 -251q31 6 64 6q63 0 127.5 -27.5t119 -77.5t89 -130.5t34.5 -176.5q0 -113 -60.5 -210t-163.5 -155
q54 -254 54 -508q0 -52 -16.5 -103.5t-48.5 -97.5t-87 -74.5t-125 -28.5q-168 0 -256.5 80t-88.5 220q0 86 44 133.5t129 47.5q76 0 123.5 -46t47.5 -123q0 -66 -39 -101.5t-109 -40.5q17 -46 48 -68t103 -22q54 0 94.5 22.5t62.5 58.5t32.5 74t10.5 75q0 236 -48 470
q-84 -31 -175 -31q-227 0 -369.5 161t-142.5 411q0 84 18.5 161t49 140t79.5 127t99.5 115.5t120.5 114.5q-35 173 -35 398q0 62 9 130.5t31 143t54.5 133t85 96.5t116.5 38q37 0 77 -67t65.5 -169t25.5 -197q0 -205 -74.5 -358t-237.5 -289zM620 869q284 253 284 454
q0 40 -4.5 77.5t-15 75t-31.5 60.5t-50 23q-33 0 -81 -67t-83 -155.5t-35 -145.5q0 -209 16 -322z" />
    <glyph glyph-name="H" unicode="H" horiz-adv-x="1375" 
d="M947 3v-202h250v-46h-984v46h250v202h484z" />
    <glyph glyph-name="I" unicode="I" horiz-adv-x="657" 
 />
    <glyph glyph-name="J" unicode="J" horiz-adv-x="657" 
 />
    <glyph glyph-name="K" unicode="K" horiz-adv-x="1566" 
d="M838 3l78 -165q52 44 142 44q176 0 253 -82.5t77 -247.5q0 -61 -11 -114.5t-36 -100.5t-62.5 -80.5t-93.5 -53t-126 -19.5q-159 0 -248 65.5t-89 148.5q0 59 38.5 98t88.5 39q59 0 96.5 -34.5t37.5 -90.5q0 -84 -76 -120q20 -21 53 -29.5t99 -8.5q156 0 156 300
q0 149 -33.5 207.5t-122.5 58.5q-36 0 -65 -11t-52 -34.5t-39 -47t-36 -60.5q-4 -8 -7 -12t-10.5 -7.5t-18.5 -3.5t-32 45.5t-26 61.5q-39 84 -63 129.5t-68 112.5v-807h-80v1638h80v-807q44 67 68 112.5t63 129.5q5 16 26 61.5t32 45.5t18.5 -3.5t10.5 -7.5t7 -12
q20 -37 36 -60.5t39 -47t52 -34.5t65 -11q89 0 122.5 58.5t33.5 207.5q0 300 -156 300q-66 0 -99 -8.5t-53 -29.5q76 -36 76 -120q0 -56 -37.5 -90.5t-96.5 -34.5q-50 0 -88.5 39t-38.5 98q0 83 89 148.5t248 65.5q70 0 126 -19.5t93.5 -53t62.5 -80.5t36 -100.5t11 -114.5
q0 -165 -77 -247.5t-253 -82.5q-90 0 -142 44zM422 822v-1638h-222v1638h222z" />
    <glyph glyph-name="L" unicode="L" horiz-adv-x="1128" 
 />
    <glyph glyph-name="M" unicode="M" horiz-adv-x="3000" 
d="M192 -258v842h70v-256h2460v256h70v-842h-70v256h-2460v-256h-70z" />
    <glyph glyph-name="N" unicode="N" horiz-adv-x="1554" 
 />
    <glyph glyph-name="O" unicode="O" horiz-adv-x="1614" 
 />
    <glyph glyph-name="P" unicode="P" horiz-adv-x="2596" 
d="M-2 773q0 54 21 117.5t67 131t110 122t159 89.5t205 35q124 0 239 -50t185 -132.5t70 -172.5q0 -58 -14 -96t-39.5 -55t-49.5 -22.5t-57 -5.5q-80 0 -148.5 64.5t-104.5 157.5q-1 2 -1 4q0 11 15.5 27.5t25.5 16.5q3 0 5 -3q61 -117 158 -117q21 0 33 24.5t12 60.5
q0 43 -19.5 80.5t-52 64t-72 45.5t-83.5 29q-108 -190 -108 -271q0 -27 55 -99.5l110 -145t55 -101.5q0 -30 -42.5 -100.5t-110.5 -154.5q59 -3 105.5 -21t72.5 -42.5t44 -48.5t28.5 -41t16.5 -17q14 0 90 59q-28 80 -28 183q0 139 77 237t200 98q76 0 121.5 -37t45.5 -113
q0 -52 -71 -137.5t-182 -177.5q36 -64 84 -104.5t85 -40.5q79 0 184 92q-16 64 -16 142q0 124 66.5 231.5t159.5 146.5q-100 116 -250.5 197.5t-339.5 114.5q-11 2 -11 16q0 15 11.5 31t23.5 16h3q130 -21 252.5 -60t241.5 -104.5t207 -148.5t142 -199.5t54 -250.5
q0 -77 -18.5 -138t-48.5 -99t-71 -62.5t-83 -34.5t-88 -10q-69 0 -122.5 36t-86.5 103q-71 -63 -157.5 -101t-140.5 -38q-21 0 -47.5 8t-58 25t-62.5 49.5t-53 75.5q-76 -52 -159 -95.5t-122 -43.5q-16 0 -32 22t-31 52.5t-45.5 70.5t-67.5 67q-84 -93 -159.5 -152.5
t-119.5 -59.5q-34 0 -47.5 10.5t-13.5 39.5q0 38 51 87.5t124 90.5t142 62q52 63 80.5 106.5t28.5 69.5q0 13 -52 76t-104 139.5t-52 123.5q0 39 50.5 156t115.5 225h-13q-187 0 -296 -88t-109 -269q0 -79 18 -114.5t65 -35.5q19 0 33.5 15t22.5 34.5t14 52t8.5 55t4.5 55.5
q1 8 14 8q14 0 27 -7.5t13 -18.5q1 -23 1 -42q0 -292 -181 -292q-99 0 -155.5 56.5t-56.5 165.5zM2085 106q0 43 30.5 73.5t73.5 30.5t73.5 -30.5t30.5 -73.5t-30.5 -73.5t-73.5 -30.5t-73.5 30.5t-30.5 73.5zM1113 319q162 154 162 237q0 34 -25 55.5t-65 21.5
q-39 0 -67 -53t-28 -135q0 -63 23 -126zM1750 665q-23 -12 -40 -29t-29 -34t-20 -43t-12 -46.5t-6 -56t-2.5 -59.5t-0.5 -68q0 -88 28 -169t70 -81q29 0 50.5 10.5t39.5 36.5t27.5 75t9.5 120q0 181 -115 344z" />
    <glyph glyph-name="Q" unicode="Q" horiz-adv-x="812" 
d="M538 -154q-1 0 -42 10t-79 10q-29 0 -47.5 -18t-18.5 -56q0 -34 21 -67t47 -54t47 -39t21 -25t-15.5 -18t-29.5 -11q-12 0 -48.5 20.5t-79 52.5t-75 80t-32.5 94q0 81 34.5 127.5t87.5 46.5q68 0 116 -30q-70 80 -119 166.5t-49 122.5q0 13 42 71t84 124.5t42 100.5
q0 25 -35.5 73t-71 88.5t-35.5 46.5q0 11 25.5 32t36.5 21q13 0 76.5 -76.5t122 -164t58.5 -113.5q0 -29 -90 -172.5t-90 -166.5q0 -22 76.5 -126.5t76.5 -110.5q0 -15 -20 -27t-37 -12z" />
    <glyph glyph-name="R" unicode="R" horiz-adv-x="1283" 
 />
    <glyph glyph-name="S" unicode="S" horiz-adv-x="994" 
d="M458 -514l-71 33l189 570q-110 -95 -250 -95q-62 0 -96.5 36.5t-34.5 99.5q0 55 36.5 96t94.5 41q63 0 92.5 -41t29.5 -96q0 -15 -3 -34q29 4 60 21t56 41.5t38.5 40t23.5 29.5l86 259q-110 -95 -251 -95q-61 0 -95.5 36.5t-34.5 99.5q0 55 36 96t94 41q33 0 57.5 -12.5
t38 -33t20 -43.5t6.5 -48q0 -15 -2 -34q29 4 60 21t55.5 41.5t38.5 40t24 29.5l72 -33z" />
    <glyph glyph-name="T" unicode="T" horiz-adv-x="1126" 
d="M952 503l-502 -1505l-71 33l189 570q-110 -95 -250 -95q-62 0 -96.5 36.5t-34.5 99.5q0 55 36.5 96t94.5 41q63 0 92.5 -41t29.5 -96q0 -15 -3 -34q29 4 60 21t56 41.5t38.5 40t23.5 29.5l86 259q-110 -95 -251 -95q-61 0 -95.5 36.5t-34.5 99.5q0 55 36 96t94 41
q33 0 57.5 -12.5t38 -33t20 -43.5t6.5 -48q0 -15 -2 -34q29 4 60 21t55.5 41.5t38.5 40t24 29.5l85 259q-110 -95 -250 -95q-62 0 -96.5 36.5t-34.5 99.5q0 55 36.5 96t94.5 41q63 0 92.5 -41t29.5 -96q0 -15 -3 -34q29 4 60 21t56 41.5t38.5 40t23.5 29.5z" />
    <glyph glyph-name="U" unicode="U" horiz-adv-x="1258" 
d="M1084 674l-634 -1903l-71 33l189 570q-110 -95 -250 -95q-62 0 -96.5 36.5t-34.5 99.5q0 55 36.5 96t94.5 41q63 0 92.5 -41t29.5 -96q0 -15 -3 -34q29 4 60 21t56 41.5t38.5 40t23.5 29.5l86 259q-110 -95 -251 -95q-61 0 -95.5 36.5t-34.5 99.5q0 55 36 96t94 41
q33 0 57.5 -12.5t38 -33t20 -43.5t6.5 -48q0 -15 -2 -34q29 4 60 21t55.5 41.5t38.5 40t24 29.5l85 259q-110 -95 -250 -95q-62 0 -96.5 36.5t-34.5 99.5q0 55 36.5 96t94.5 41q63 0 92.5 -41t29.5 -96q0 -15 -3 -34q29 4 60 21t56 41.5t38.5 40t23.5 29.5l86 259
q-110 -95 -250 -95q-62 0 -97 36.5t-35 99.5q0 55 36.5 96t95.5 41q32 0 56.5 -12.5t38 -33t20.5 -43.5t7 -48q0 -15 -4 -34q30 4 61 21t55.5 41.5t38.5 40t24 29.5z" />
    <glyph glyph-name="V" unicode="V" horiz-adv-x="1390" 
d="M1241 871l-767 -2301l-71 33l189 570q-110 -95 -250 -95q-62 0 -96.5 36.5t-34.5 99.5q0 55 36.5 96t94.5 41q63 0 92.5 -41t29.5 -96q0 -15 -3 -34q29 4 60 21t56 41.5t38.5 40t23.5 29.5l86 259q-110 -95 -251 -95q-61 0 -95.5 36.5t-34.5 99.5q0 55 36 96t94 41
q33 0 57.5 -12.5t38 -33t20 -43.5t6.5 -48q0 -15 -2 -34q29 4 60 21t55.5 41.5t38.5 40t24 29.5l85 259q-110 -95 -250 -95q-62 0 -96.5 36.5t-34.5 99.5q0 55 36.5 96t94.5 41q63 0 92.5 -41t29.5 -96q0 -15 -3 -34q29 4 60 21t56 41.5t38.5 40t23.5 29.5l86 259
q-110 -95 -250 -95q-62 0 -97 36.5t-35 99.5q0 55 36.5 96t95.5 41q32 0 56.5 -12.5t38 -33t20.5 -43.5t7 -48q0 -15 -4 -34q30 4 61 21t55.5 41.5t38.5 40t24 29.5l85 259q-110 -95 -250 -95q-62 0 -96.5 36.5t-34.5 99.5q0 55 36.5 96t94.5 41q63 0 92.5 -41t29.5 -96
q0 -15 -3 -34q29 4 60 21t56 41.5t38.5 40t24.5 29.5z" />
    <glyph glyph-name="W" unicode="W" horiz-adv-x="1375" 
d="M462 146v202h-250v46h984v-46h-250v-202h-484z" />
    <glyph glyph-name="X" unicode="X" horiz-adv-x="780" 
d="M340 -247v-358h-70v349l-70 -9v140l70 9v194l-70 -9v140l70 9v319h70v-310l100 14v358h70v-349l70 9v-140l-70 -9v-194l70 9v-140l-70 -9v-319h-70v310zM340 -107l100 14v194l-100 -14v-194z" />
    <glyph glyph-name="Y" unicode="Y" horiz-adv-x="1233" 
 />
    <glyph glyph-name="Z" unicode="Z" horiz-adv-x="1124" 
 />
    <glyph glyph-name="bracketleft" unicode="[" horiz-adv-x="758" 
 />
    <glyph glyph-name="backslash" unicode="\" horiz-adv-x="1200" 
d="M800 -189q0 41 29.5 70.5t70.5 29.5t70.5 -29.5t29.5 -70.5t-29.5 -70.5t-70.5 -29.5t-70.5 29.5t-29.5 70.5zM800 209q0 41 29.5 70.5t70.5 29.5t70.5 -29.5t29.5 -70.5t-29.5 -70.5t-70.5 -29.5t-70.5 29.5t-29.5 70.5zM424 829v-1638h-224v1638h224zM644 829v-1638
h-80v1638h80z" />
    <glyph glyph-name="bracketright" unicode="]" horiz-adv-x="758" 
 />
    <glyph glyph-name="asciicircum" unicode="^" 
 />
    <glyph glyph-name="underscore" unicode="_" horiz-adv-x="1600" 
d="M0 1439h1600v-46h-1600v46zM0 1041h1600v-46h-1600v46zM0 643h1600v-46h-1600v46zM0 245h1600v-46h-1600v46z" />
    <glyph glyph-name="grave" unicode="`" horiz-adv-x="1024" 
d="M673 1079h-69l-330 202q-31 20 -46.5 40t-15.5 42q0 31 20.5 51t53.5 20q20 0 40.5 -12t55.5 -47z" />
    <glyph glyph-name="a" unicode="a" horiz-adv-x="922" 
 />
    <glyph glyph-name="b" unicode="b" horiz-adv-x="780" 
d="M200 -235v1033h70v-629q37 28 55.5 40t50.5 21.5t74 9.5q66 0 98 -46t32 -113q0 -73 -80.5 -150t-229.5 -166h-70zM270 94v-256q42 30 70.5 55t55.5 57t40.5 67.5t13.5 74.5q0 68 -50 68q-26 0 -43 -6t-36 -21t-51 -39z" />
    <glyph glyph-name="c" unicode="c" horiz-adv-x="986" 
d="M141 2q0 71 24.5 141t68.5 128.5t113.5 95t152.5 36.5q133 0 204.5 -67t71.5 -155q0 -106 -41.5 -147t-118.5 -41q-64 0 -96 41t-32 104q0 54 38 88t93 34q30 0 58 -11q-25 41 -71.5 67.5t-110.5 26.5q-51 0 -88.5 -32t-56.5 -85.5t-27.5 -108.5t-8.5 -115q0 -74 8 -130
t27.5 -106t57.5 -76.5t94 -26.5q54 0 100 32.5t69 71t39 70.5l15 33q21 0 43 -4.5t22 -7.5q0 -22 -18 -62.5t-50.5 -86t-91 -78.5t-128.5 -33q-91 0 -161.5 32.5t-113 89.5t-64 128.5t-21.5 153.5z" />
    <glyph glyph-name="d" unicode="d" horiz-adv-x="1364" 
d="M662 157q-47 0 -81 -31.5t-34 -82.5q0 -83 40 -136.5t115 -53.5q47 0 81 31.5t34 82.5q0 85 -38.5 137.5t-116.5 52.5zM248 267v-524h-48v524h48zM1164 267v-524h-48v524h48zM1064 267v-524h-48v209q-11 -51 -55.5 -90.5t-102 -59t-114.5 -19.5q-87 0 -152.5 9.5
t-119 31.5t-85 62t-39.5 98v-241h-48v524h48v-209q11 51 55.5 90.5t102 59t114.5 19.5q87 0 152.5 -9.5t119 -31.5t85 -62t39.5 -98v241h48z" />
    <glyph glyph-name="e" unicode="e" horiz-adv-x="1444" 
d="M715 1443h70q15 -74 48.5 -143.5t74.5 -123.5t88 -106.5t90.5 -102t79 -100.5t57 -111.5t21.5 -125.5q0 -129 -40.5 -215.5t-143.5 -207.5q-12 -14 -39.5 -0.5t-16.5 27.5q32 42 58.5 76.5t48 69t36.5 68.5t23 75.5t8 89.5q0 55 -19 101t-50.5 79.5t-69.5 63.5t-78.5 59
t-75.5 59.5t-62.5 71.5t-37.5 89v-1036q0 -125 -109.5 -210t-249.5 -85q-225 0 -225 149q0 125 109 210t250 85q99 0 155 -30v1224z" />
    <glyph glyph-name="f" unicode="f" horiz-adv-x="684" 
d="M583 1240q-33 0 -59 -26t-45.5 -76.5t-32.5 -106t-27 -135.5h149v-63h-159q-28 -177 -29 -186q-53 -314 -159.5 -488t-223.5 -174q-85 0 -118.5 25.5t-33.5 87.5q0 59 30 97.5t69 38.5q34 0 59 -17.5t25 -48.5q0 -29 -12.5 -47.5t-31.5 -18.5q-21 0 -29.5 -8t-8.5 -23
q0 -16 51 -16q46 0 79.5 53t52.5 138.5t37 194t32 218.5q12 87 36 174h-134v63h152q37 117 86.5 208t114 148.5t130.5 57.5q63 0 107.5 -28.5t44.5 -85.5q0 -58 -30 -96.5t-69 -38.5q-34 0 -59 17.5t-25 48.5q0 28 12.5 47t31.5 19q38 0 38 31q0 7 -16.5 11.5t-34.5 4.5z
" />
    <glyph glyph-name="g" unicode="g" horiz-adv-x="1376" 
d="M719 -1374q-40 -19 -64.5 -49.5t-24.5 -63.5q0 -57 30 -83t79 -26t79 26t30 83q0 61 -129 113zM755 -1331q42 17 60 37.5t18 57.5q0 40 -27.5 63t-66.5 23t-66.5 -23t-27.5 -63q0 -22 8.5 -38t26.5 -26.5t33 -16.5t42 -14zM795 -1346q46 -23 75.5 -62t29.5 -79
q0 -136 -161 -136t-161 136q0 37 29 72t74 56q-41 18 -62 45t-21 78q0 49 43 81t98 32t98 -32t43 -81q0 -45 -22.5 -70t-62.5 -40zM700 -179q-35 3 -64.5 10t-62.5 24t-56 42.5t-38 68.5t-15 100q0 107 52 201t146 136q-8 30 -61 218q-321 -290 -321 -535q0 -91 42.5 -174
t105.5 -137t134.5 -85.5t131.5 -31.5q88 0 162 32q-17 74 -38.5 154.5t-56.5 201.5t-51 181q-49 -17 -87 -52t-54.5 -66t-16.5 -50q0 -97 24 -136t124 -102zM780 241q16 -59 48.5 -170t54.5 -191t40 -152q67 48 104 123.5t37 170.5q0 105 -75.5 162.5t-191.5 57.5
q-9 0 -17 -1zM663 675l67 -251q31 6 64 6q63 0 127.5 -27.5t119 -77.5t89 -130.5t34.5 -176.5q0 -113 -60.5 -210t-163.5 -155q54 -254 54 -508q0 -52 -16.5 -103.5t-48.5 -97.5t-87 -74.5t-125 -28.5q-168 0 -256.5 80t-88.5 220q0 86 44 133.5t129 47.5q76 0 123.5 -46
t47.5 -123q0 -66 -39 -101.5t-109 -40.5q17 -46 48 -68t103 -22q54 0 94.5 22.5t62.5 58.5t32.5 74t10.5 75q0 236 -48 470q-84 -31 -175 -31q-227 0 -369.5 161t-142.5 411q0 84 18.5 161t49 140t79.5 127t99.5 115.5t120.5 114.5q-35 173 -35 398q0 62 9 130.5t31 143
t54.5 133t85 96.5t116.5 38q37 0 77 -67t65.5 -169t25.5 -197q0 -205 -74.5 -358t-237.5 -289zM620 880q284 253 284 454q0 40 -4.5 77.5t-15 75t-31.5 60.5t-50 23q-33 0 -81 -67t-83 -155.5t-35 -145.5q0 -209 16 -322z" />
    <glyph glyph-name="h" unicode="h" horiz-adv-x="985" 
d="M346 -143q61 0 129 33.5t116.5 78.5t81 88.5t32.5 64.5t-20.5 33t-44.5 12q-61 0 -129 -33.5t-116.5 -78.5t-81 -88.5t-32.5 -64.5t20.5 -33t44.5 -12zM715 1428h70v-1343q0 -125 -109.5 -210t-249.5 -85q-225 0 -225 149q0 125 109 210t250 85q99 0 155 -30v1224z" />
    <glyph glyph-name="i" unicode="i" horiz-adv-x="514" 
 />
    <glyph glyph-name="j" unicode="j" horiz-adv-x="510" 
 />
    <glyph glyph-name="k" unicode="k" horiz-adv-x="780" 
d="M200 -265v855h70v-372l310 41v-855h-70v372zM270 77v-187l240 27v187z" />
    <glyph glyph-name="l" unicode="l" horiz-adv-x="1200" 
d="M200 -197q0 41 29.5 70.5t70.5 29.5t70.5 -29.5t29.5 -70.5t-29.5 -70.5t-70.5 -29.5t-70.5 29.5t-29.5 70.5zM200 201q0 41 29.5 70.5t70.5 29.5t70.5 -29.5t29.5 -70.5t-29.5 -70.5t-70.5 -29.5t-70.5 29.5t-29.5 70.5zM776 821h224v-1638h-224v1638zM556 821h80v-1638
h-80v1638z" />
    <glyph glyph-name="m" unicode="m" horiz-adv-x="1569" 
 />
    <glyph glyph-name="n" unicode="n" horiz-adv-x="1108" 
 />
    <glyph glyph-name="o" unicode="o" horiz-adv-x="1010" 
 />
    <glyph glyph-name="p" unicode="p" horiz-adv-x="1010" 
 />
    <glyph glyph-name="q" unicode="q" horiz-adv-x="985" 
d="M715 1421h70v-1343q0 -125 -109.5 -210t-249.5 -85q-225 0 -225 149q0 125 109 210t250 85q99 0 155 -30v1224z" />
    <glyph glyph-name="r" unicode="r" horiz-adv-x="692" 
 />
    <glyph glyph-name="s" unicode="s" horiz-adv-x="1444" 
d="M785 865v-749q0 -125 -109.5 -210t-249.5 -85q-225 0 -225 149q0 125 109 210t250 85q99 0 155 -30v1224h70q12 -54 44 -102.5t73 -86.5t88 -75.5t92 -76.5t81.5 -81.5t58.5 -99.5t22 -122q0 -116 -33 -186q33 -63 33 -142q0 -135 -38.5 -208.5t-145.5 -151.5
q-15 -11 -42.5 2.5t-13.5 24.5q49 39 77 65.5t52.5 63.5t34.5 81.5t10 105.5q0 72 -36.5 119.5t-90 72.5t-109 47.5t-100.5 60.5t-57 95zM785 1081q12 -54 44 -100t75.5 -81.5t88 -65.5t94 -67t80.5 -73q11 44 11 105t-26 108t-66 75.5t-88.5 57.5t-91.5 53t-77 63t-44 87
v-162z" />
    <glyph glyph-name="t" unicode="t" horiz-adv-x="1444" 
d="M785 1391q15 -67 63.5 -128.5t101.5 -101.5t119.5 -95.5t103.5 -103.5q5 35 5 73q0 53 -19.5 95t-51 70.5t-70.5 52.5t-79.5 46.5t-75.5 46.5t-61.5 58t-35.5 76v-89zM1171 654q7 34 7 85q0 60 -26 106.5t-66 74t-88.5 55.5t-91.5 51.5t-77 62t-44 86.5v-88
q12 -55 44.5 -104.5t76.5 -89t89.5 -75.5t95 -79.5t80.5 -84.5zM1216 580q28 -66 28 -137q0 -104 -38.5 -168t-145.5 -142q-15 -11 -42.5 2.5t-13.5 24.5q51 40 77.5 63.5t52 56t35 66.5t9.5 80q0 53 -19.5 95t-51 70.5t-70.5 52.5t-79.5 46.5t-75.5 46.5t-61.5 58t-35.5 76
v-749q0 -125 -109.5 -210t-249.5 -85q-225 0 -225 149q0 125 109 210t250 85q99 0 155 -30v1454h70q12 -54 44 -102.5t73 -86.5t88 -75.5t92 -76.5t81.5 -81.5t58.5 -99t22 -121.5q0 -102 -25 -168q26 -62 25 -129q-3 -110 -28 -175z" />
    <glyph glyph-name="u" unicode="u" horiz-adv-x="1444" 
d="M1216 574q28 -66 28 -137q0 -104 -38.5 -168t-145.5 -142q-15 -11 -42.5 2.5t-13.5 24.5q51 40 77.5 63.5t52 56t35 66.5t9.5 80q0 53 -19.5 95t-51 70.5t-70.5 52.5t-79.5 46.5t-75.5 46.5t-61.5 58t-35.5 76v-749q0 -125 -109.5 -210t-249.5 -85q-225 0 -225 149
q0 125 109 210t250 85q99 0 155 -30v1758l70 1q12 -54 44 -103t73 -86.5t88 -75.5t92 -77t81.5 -81.5t58.5 -99t22 -121.5q0 -103 -27 -171q27 -62 27 -133q0 -102 -25 -168q26 -62 25 -129q-3 -110 -28 -175zM1171 648q7 34 7 85q0 60 -26 106.5t-66 74t-88.5 55.5
t-91.5 51.5t-77 62t-44 86.5v-88q12 -55 44.5 -104.5t76.5 -89t89.5 -75.5t95 -79.5t80.5 -84.5zM785 1385q15 -67 63.5 -128.5t101.5 -101.5t119.5 -95.5t103.5 -103.5q5 35 5 73q0 53 -19.5 95t-51 70.5t-70.5 52.5t-79.5 46.5t-75.5 46.5t-61.5 58t-35.5 76v-89z
M785 1778v-89q12 -55 44.5 -104.5t77 -89.5t90 -75.5t95 -79.5t80.5 -85q6 33 6 78q0 53 -19.5 95t-51 70.5t-70.5 52.5t-79.5 46.5t-75.5 46.5t-61.5 58t-35.5 76z" />
    <glyph glyph-name="v" unicode="v" horiz-adv-x="1444" 
d="M785 1766v-89q12 -55 44.5 -104.5t77 -89.5t90 -75.5t95 -79.5t80.5 -85q6 33 6 78q0 53 -19.5 95t-51 70.5t-70.5 52.5t-79.5 46.5t-75.5 46.5t-61.5 58t-35.5 76zM785 1373q15 -67 63.5 -128.5t101.5 -101.5t119.5 -95.5t103.5 -103.5q5 35 5 73q0 53 -19.5 95
t-51 70.5t-70.5 52.5t-79.5 46.5t-75.5 46.5t-61.5 58t-35.5 76v-89zM1171 636q7 34 7 85q0 60 -26 106.5t-66 74t-88.5 55.5t-91.5 51.5t-77 62t-44 86.5v-88q12 -55 44.5 -104.5t76.5 -89t89.5 -75.5t95 -79.5t80.5 -84.5zM1216 562q28 -66 28 -137q0 -104 -38.5 -168
t-145.5 -142q-15 -11 -42.5 2.5t-13.5 24.5q51 40 77.5 63.5t52 56t35 66.5t9.5 80q0 53 -19.5 95t-51 70.5t-70.5 52.5t-79.5 46.5t-75.5 46.5t-61.5 58t-35.5 76v-749q0 -125 -109.5 -210t-249.5 -85q-225 0 -225 149q0 125 109 210t250 85q99 0 155 -30v2063h70
q12 -54 44 -102.5t73 -86.5t88 -75.5t92 -76.5t81.5 -81.5t58.5 -99t22 -121.5q0 -104 -27 -172q27 -62 27 -133q0 -103 -27 -171q27 -62 27 -133q0 -102 -25 -168q26 -62 25 -129q-3 -110 -28 -175zM785 2071v-89q12 -55 44.5 -104.5t77 -89.5t90 -76t95 -80t80.5 -85
q6 34 6 79q0 53 -19.5 95t-51 70.5t-70.5 52.5t-79.5 46.5t-75.5 46.5t-61.5 58t-35.5 76z" />
    <glyph glyph-name="w" unicode="w" horiz-adv-x="1075" 
d="M518 157q-47 0 -81 -31.5t-34 -82.5q0 -83 40 -136.5t115 -53.5q47 0 81 31.5t34 82.5q0 85 -38.5 137.5t-116.5 52.5zM476 227q95 0 164.5 -11t124.5 -38t82.5 -76t27.5 -120q0 -59 -44.5 -106t-106.5 -70t-124 -23q-95 0 -164.5 11t-124.5 38t-82.5 76t-27.5 120
q0 59 44.5 106t106.5 70t124 23z" />
    <glyph glyph-name="x" unicode="x" horiz-adv-x="844" 
d="M200 61v158h158v-138h128v138h158v-158h-138v-128h138v-158h-158v138h-128v-138h-158v158h138v128h-138z" />
    <glyph glyph-name="y" unicode="y" horiz-adv-x="868" 
 />
    <glyph glyph-name="z" unicode="z" horiz-adv-x="727" 
 />
    <glyph glyph-name="braceleft" unicode="{" 
d="M240 698q172 5 223 71t51 133v468q0 74 77 141.5t185 67.5h108v-50h-90q-61 0 -107 -33.5t-47 -91.5v-500q0 -83 -60.5 -158.5t-142.5 -76.5v-2q82 -1 143 -76t61 -158l-1 -500q1 -58 47 -91.5t107 -33.5h90v-50h-108q-108 0 -184.5 67.5t-77.5 141.5v468q0 66 -51 132
t-223 71v60z" />
    <glyph glyph-name="bar" unicode="|" 
d="M427 1577h160v-1995h-160v1995z" />
    <glyph glyph-name="braceright" unicode="}" 
d="M774 638q-172 -5 -223 -71t-51 -132v-468q-1 -74 -77.5 -141.5t-184.5 -67.5h-108v50h90q61 0 107 33.5t47 91.5l-1 500q0 83 61 158t144 76v2q-83 1 -143.5 76.5t-60.5 158.5v500q-1 58 -47 91.5t-107 33.5h-90v50h108q108 0 185 -67.5t77 -141.5v-468q0 -67 51 -133
t223 -71v-60z" />
    <glyph glyph-name="asciitilde" unicode="~" 
d="M923 878v-156q-63 -72 -122 -97.5t-116 -25.5q-60 0 -177.5 48.5t-176.5 48.5q-51 0 -107.5 -28t-129.5 -112v156q64 73 123 99t114 26q64 0 181.5 -49.5t172.5 -49.5q52 0 108.5 28t129.5 112z" />
    <glyph glyph-name="exclamdown" unicode="&#xa1;" horiz-adv-x="672" 
 />
    <glyph glyph-name="cent" unicode="&#xa2;" horiz-adv-x="1139" 
 />
    <glyph glyph-name="sterling" unicode="&#xa3;" 
d="M748 1347q-72 31 -160 31h-2q-100 0 -190 -101q-84 -93 -84 -241q0 -15 1 -30q0 -135 53 -273h360v-60h-334q14 -30 31 -60q35 -63 35 -138q0 -161 -162 -375h402q130 0 189 132l49 -1l-103 -231h-719l1 50q187 238 187 418q0 77 -34 143q-17 32 -31 62h-161v60h135
q-58 143 -58 253q0 226 123.5 347t306.5 121h4q75 0 185.5 -14t110.5 -34v-161h-58q-5 61 -77 102z" />
    <glyph glyph-name="currency" unicode="&#xa4;" 
d="M350 560q41 -40 99 -57q29 -8 58 -8t58 8q58 17 99 57q40 41 57 99q9 29 9 58t-9 58q-17 58 -57 99q-41 40 -100 57q-29 8 -58 8t-58 -9q-58 -17 -98 -56q-39 -40 -56 -98q-10 -30 -10 -60q0 -28 9 -56q16 -59 57 -100zM240 903l-118 118l80 81l118 -118q44 30 99 46
q44 14 89 14q41 0 83 -12q57 -17 102 -48l118 118l80 -81l-117 -117q31 -46 48 -102q12 -42 12 -85q0 -42 -12 -85q-17 -56 -48 -102l117 -117l-80 -81l-118 118q-45 -32 -101 -48q-42 -12 -85 -12q-42 0 -85 12q-57 16 -102 48l-118 -118l-80 81l118 117q-32 46 -48 103
q-12 42 -12 84q0 44 13 87q16 55 47 99z" />
    <glyph glyph-name="yen" unicode="&#xa5;" horiz-adv-x="1262" 
d="M547 225l-2 242q0 19 -1.5 35t-4.5 32l-484 1q-14 0 -21 6.5t-7 19.5t6.5 19t21.5 6h467l-121 172h-344q-17 0 -23.5 5.5t-6.5 18.5q0 14 6 19.5t22 5.5h307q-43 57 -108 155q-131 197 -227 197q-7 0 -13 5.5t-6 11.5q0 19 10.5 27.5t32.5 8.5q27 0 123 -8t164 -8h57h31
q33 0 41 -6.5t8 -26.5q0 -8 -15 -14t-38 -6q-6 0 -18.5 2t-18.5 2q-24 0 -37.5 -9.5t-13.5 -25.5q0 -18 16.5 -52t46.5 -77l158 -221q13 -19 33 -53q41 -70 71 -70q9 0 16.5 5t14.5 15l277 396q8 12 13 26.5t5 24.5q0 18 -10 27t-37 14q-15 2 -41 4q-47 3 -47 25
q0 15 8 22.5t25 7.5q3 0 15 -1q56 -7 108 -7h139q30 0 65 1t37 1q11 0 18.5 -4.5t8.5 -11.5q0 -28 -38 -34q-18 -3 -27 -5q-63 -15 -147 -117q-7 -9 -12 -15l-169 -206h323q15 0 24 -6t9 -17q0 -15 -6 -20.5t-23 -5.5h-366q-46 -57 -96.5 -112.5t-52.5 -59.5h511
q18 0 25.5 -5.5t7.5 -17.5q0 -14 -7 -21t-22 -7h-530q0 -11 -1 -30.5t-1 -29.5l2 -215q0 -114 5.5 -150t20.5 -44q30 -17 107.5 -19t77.5 -31q0 -12 -10 -20t-25 -8q-2 0 -35.5 4t-64.5 4q-91 0 -208.5 -4t-142.5 -4q-31 0 -40 4t-9 16t8 18.5t37 12.5q9 2 25 5q74 16 92 32
q17 13 24 47t7 102z" />
    <glyph glyph-name="brokenbar" unicode="&#xa6;" 
d="M427 371h160v-789h-160v789zM427 1578h160v-789h-160v789z" />
    <glyph glyph-name="section" unicode="&#xa7;" 
d="M545 321q56 16 97 53q73 65 73 166q0 5 -1 10h-2q-1 14 -4 27q-22 61 -113 127q-59 29 -126 29q-78 0 -125 -44.5t-47 -117.5q0 -123 248 -250zM466 -346q113 6 185 69q72 64 72 165q0 125 -316 276q-123 64 -175.5 137t-52.5 177q0 148 89 237q67 65 170 82l-40 19
q-123 64 -175.5 137t-52.5 177q0 148 89 237q82 79 216 86q8 1 17 1h3q66 0 163 -16.5t97 -41.5v-194h-51q-5 81 -80 132q-70 47 -149 51h-15q-78 0 -125 -44.5t-47 -117.5q0 -132 287 -269q149 -67 204.5 -143.5t55.5 -187.5q0 -171 -101 -282q-47 -39 -99 -64
q108 -56 154 -118q55 -77 55 -187q0 -171 -101 -283q-124 -102 -277 -105v1q-6 -1 -13 -1h-3q-66 0 -163 16.5t-97 41.5v194h51q5 -81 80 -132q68 -45 145 -50z" />
    <glyph glyph-name="dieresis" unicode="&#xa8;" horiz-adv-x="1024" 
d="M223 1289l71 72q13 12 25 12q11 0 27 -14l69 -73q10 -14 10 -25q0 -13 -12 -27l-69 -75q-17 -17 -25 -17q-14 0 -25 12l-76 86q-9 12 -9 23q0 13 14 26zM588 1289l71 72q13 12 25 12q11 0 27 -13l69 -74q10 -14 10 -25q0 -13 -12 -26l-69 -76q-17 -17 -25 -17
q-14 0 -25 12l-76 87q-9 11 -9 22q0 13 14 26z" />
    <glyph glyph-name="copyright" unicode="&#xa9;" horiz-adv-x="1674" 
d="M840 1456q145 0 280 -56.5t239 -160.5q102 -101 158.5 -238t56.5 -283q0 -147 -56.5 -282t-162.5 -240q-105 -105 -239 -159.5t-283 -54.5q-146 0 -278 55.5t-238 160.5q-106 104 -161.5 237.5t-55.5 282.5q0 148 55.5 283t159.5 238q102 104 238.5 160.5t286.5 56.5z
M357 1197q-95 -96 -146 -219.5t-51 -259.5q0 -137 51 -259t148 -219q98 -96 219 -147t256 -51q137 0 259.5 50.5t219.5 145.5q97 98 149 221.5t52 258.5q0 134 -52 259.5t-145 219.5q-96 96 -220 147.5t-258 51.5q-137 0 -262 -51.5t-220 -147.5zM865 223q-142 0 -264 68
t-186 185t-64 243t65.5 244t187.5 184.5t254 66.5q38 0 75 -6.5t76 -20.5q5 -1 9 -1q19 0 26 30h42l72 -198h-44q-52 94 -131 124q-72 26 -147 26h-15q-86 -8 -166.5 -71t-121.5 -177q-33 -90 -33 -184q0 -25 2 -50q11 -121 69.5 -224t149.5 -152q72 -40 166 -42
q124 0 194 56t70 126h53v-100q0 -46 -96.5 -86.5t-242.5 -40.5z" />
    <glyph glyph-name="ordfeminine" unicode="&#xaa;" horiz-adv-x="648" 
 />
    <glyph glyph-name="guillemotleft" unicode="&#xab;" horiz-adv-x="944" 
d="M174 479l342 303h14v-37l-205 -266l205 -266v-37h-14zM487 479l342 303h14v-37l-205 -266l205 -266v-37h-14z" />
    <glyph glyph-name="logicalnot" unicode="&#xac;" 
d="M87 767h840v-491l-1 -1h-98v392h-741v100z" />
    <glyph glyph-name="registered" unicode="&#xae;" horiz-adv-x="1674" 
d="M751 1099v-374l3 -8q23 -56 56 -81q29 -22 56 -22h6q31 4 61.5 38.5t46.5 97.5q13 50 13 103q0 13 -1 27q-4 67 -28 124.5t-56.5 76t-63.5 18.5h-93zM984 576l82 -116q100 -141 150 -141h34v-50h-346v50h45q30 0 30 22q0 29 -69 114l-75 102q-42 0 -84 42v-159
q0 -121 36 -121h53v-50h-316v50h43q37 0 37 121v538q0 121 -37 121h-43v70h356q64 -1 125 -42q60 -41 92.5 -114t32.5 -152q0 -78 -32 -150.5t-114 -134.5zM840 1456q145 0 280 -56.5t239 -160.5q102 -101 158.5 -238t56.5 -283q0 -147 -56.5 -282t-162.5 -240
q-105 -105 -239 -159.5t-283 -54.5q-146 0 -278 55.5t-238 160.5q-106 104 -161.5 237.5t-55.5 282.5q0 148 55.5 283t159.5 238q102 104 238.5 160.5t286.5 56.5zM357 1197q-95 -96 -146 -219.5t-51 -259.5q0 -137 51 -259t148 -219q98 -96 219 -147t256 -51
q137 0 259.5 50.5t219.5 145.5q97 98 149 221.5t52 258.5q0 134 -52 259.5t-145 219.5q-96 96 -220 147.5t-258 51.5q-137 0 -262 -51.5t-220 -147.5z" />
    <glyph glyph-name="macron" unicode="&#xaf;" horiz-adv-x="670" 
 />
    <glyph glyph-name="degree" unicode="&#xb0;" horiz-adv-x="674" 
d="M339 1372q-86 0 -147.5 -61t-61.5 -148t61 -147t148 -60t147 60t60 147t-60.5 148t-146.5 61zM339 1442q115 0 196 -81.5t81 -196.5q0 -114 -82 -196t-197 -82q-117 0 -197 81t-80 197t81.5 197t197.5 81z" />
    <glyph glyph-name="plusminus" unicode="&#xb1;" 
 />
    <glyph glyph-name="uni00B2" unicode="&#xb2;" 
 />
    <glyph glyph-name="uni00B3" unicode="&#xb3;" 
 />
    <glyph glyph-name="acute" unicode="&#xb4;" horiz-adv-x="1024" 
d="M607 1375q35 35 55.5 47t40.5 12q33 0 53.5 -20t20.5 -51q0 -22 -15.5 -42t-46.5 -40l-330 -203h-69z" />
    <glyph glyph-name="mu" unicode="&#xb5;" horiz-adv-x="1180" 
 />
    <glyph glyph-name="paragraph" unicode="&#xb6;" horiz-adv-x="1024" 
d="M929 1435v-70h-127v-1365h-82v1365h-166v-1365h-84v738q-174 8 -275.5 102.5t-101.5 245.5q0 157 107.5 253t285.5 96h443z" />
    <glyph glyph-name="periodcentered" unicode="&#xb7;" horiz-adv-x="508" 
d="M145 740l82 84q15 14 29 14q13 0 31 -16l80 -86q12 -16 12 -29q0 -15 -14 -31l-80 -88q-20 -20 -29 -20q-16 0 -29 14l-88 101q-10 13 -10 26q0 15 16 31z" />
    <glyph glyph-name="periodcentered" unicode="&#x2219;" horiz-adv-x="508" 
d="M145 740l82 84q15 14 29 14q13 0 31 -16l80 -86q12 -16 12 -29q0 -15 -14 -31l-80 -88q-20 -20 -29 -20q-16 0 -29 14l-88 101q-10 13 -10 26q0 15 16 31z" />
    <glyph glyph-name="cedilla" unicode="&#xb8;" horiz-adv-x="1024" 
d="M360 -290q85 -52 152 -52q66 0 94.5 21.5t28.5 66.5t-49 64q-40 16 -102 16q-16 0 -34 -2l48 176h63l-37 -104q32 4 62 5q86 0 134 -40.5t48 -113.5q0 -76 -58.5 -120.5t-160.5 -44.5q-109 0 -189 32v96z" />
    <glyph glyph-name="uni00B9" unicode="&#xb9;" 
 />
    <glyph glyph-name="ordmasculine" unicode="&#xba;" horiz-adv-x="718" 
 />
    <glyph glyph-name="guillemotright" unicode="&#xbb;" horiz-adv-x="944" 
d="M115 176h-14v37l205 266l-205 266v37h14l342 -303zM428 176h-14v37l205 266l-205 266v37h14l342 -303z" />
    <glyph glyph-name="onequarter" unicode="&#xbc;" horiz-adv-x="1708" 
 />
    <glyph glyph-name="onehalf" unicode="&#xbd;" horiz-adv-x="1964" 
 />
    <glyph glyph-name="threequarters" unicode="&#xbe;" horiz-adv-x="1708" 
 />
    <glyph glyph-name="questiondown" unicode="&#xbf;" horiz-adv-x="748" 
 />
    <glyph glyph-name="Agrave" unicode="&#xc0;" horiz-adv-x="1540" 
 />
    <glyph glyph-name="Aacute" unicode="&#xc1;" horiz-adv-x="1540" 
 />
    <glyph glyph-name="Acircumflex" unicode="&#xc2;" horiz-adv-x="1540" 
 />
    <glyph glyph-name="Atilde" unicode="&#xc3;" horiz-adv-x="1540" 
 />
    <glyph glyph-name="Adieresis" unicode="&#xc4;" horiz-adv-x="1540" 
 />
    <glyph glyph-name="Aring" unicode="&#xc5;" horiz-adv-x="1540" 
 />
    <glyph glyph-name="AE" unicode="&#xc6;" horiz-adv-x="2118" 
 />
    <glyph glyph-name="Ccedilla" unicode="&#xc7;" horiz-adv-x="1399" 
 />
    <glyph glyph-name="Egrave" unicode="&#xc8;" horiz-adv-x="1151" 
 />
    <glyph glyph-name="Eacute" unicode="&#xc9;" horiz-adv-x="1151" 
 />
    <glyph glyph-name="Ecircumflex" unicode="&#xca;" horiz-adv-x="1151" 
 />
    <glyph glyph-name="Edieresis" unicode="&#xcb;" horiz-adv-x="1151" 
 />
    <glyph glyph-name="Igrave" unicode="&#xcc;" horiz-adv-x="657" 
 />
    <glyph glyph-name="Iacute" unicode="&#xcd;" horiz-adv-x="657" 
 />
    <glyph glyph-name="Icircumflex" unicode="&#xce;" horiz-adv-x="657" 
 />
    <glyph glyph-name="Idieresis" unicode="&#xcf;" horiz-adv-x="657" 
 />
    <glyph glyph-name="Eth" unicode="&#xd0;" horiz-adv-x="1518" 
 />
    <glyph glyph-name="Ntilde" unicode="&#xd1;" horiz-adv-x="1554" 
 />
    <glyph glyph-name="Ograve" unicode="&#xd2;" horiz-adv-x="1614" 
 />
    <glyph glyph-name="Oacute" unicode="&#xd3;" horiz-adv-x="1614" 
 />
    <glyph glyph-name="Ocircumflex" unicode="&#xd4;" horiz-adv-x="1614" 
 />
    <glyph glyph-name="Otilde" unicode="&#xd5;" horiz-adv-x="1614" 
 />
    <glyph glyph-name="Odieresis" unicode="&#xd6;" horiz-adv-x="1614" 
 />
    <glyph glyph-name="multiply" unicode="&#xd7;" 
d="M507 618l-247 -247l-99 99l247 247l-247 248l99 98l247 -247l248 247l98 -99l-247 -247l247 -247l-99 -99z" />
    <glyph glyph-name="Oslash" unicode="&#xd8;" horiz-adv-x="1614" 
 />
    <glyph glyph-name="Ugrave" unicode="&#xd9;" horiz-adv-x="1501" 
 />
    <glyph glyph-name="Uacute" unicode="&#xda;" horiz-adv-x="1501" 
 />
    <glyph glyph-name="Ucircumflex" unicode="&#xdb;" horiz-adv-x="1501" 
 />
    <glyph glyph-name="Udieresis" unicode="&#xdc;" horiz-adv-x="1501" 
 />
    <glyph glyph-name="Yacute" unicode="&#xdd;" horiz-adv-x="1233" 
 />
    <glyph glyph-name="Thorn" unicode="&#xde;" horiz-adv-x="1120" 
 />
    <glyph glyph-name="germandbls" unicode="&#xdf;" horiz-adv-x="1251" 
 />
    <glyph glyph-name="agrave" unicode="&#xe0;" horiz-adv-x="922" 
 />
    <glyph glyph-name="aacute" unicode="&#xe1;" horiz-adv-x="922" 
 />
    <glyph glyph-name="acircumflex" unicode="&#xe2;" horiz-adv-x="922" 
 />
    <glyph glyph-name="atilde" unicode="&#xe3;" horiz-adv-x="922" 
 />
    <glyph glyph-name="adieresis" unicode="&#xe4;" horiz-adv-x="922" 
 />
    <glyph glyph-name="aring" unicode="&#xe5;" horiz-adv-x="922" 
 />
    <glyph glyph-name="ae" unicode="&#xe6;" horiz-adv-x="1454" 
 />
    <glyph glyph-name="ccedilla" unicode="&#xe7;" horiz-adv-x="905" 
 />
    <glyph glyph-name="egrave" unicode="&#xe8;" horiz-adv-x="909" 
 />
    <glyph glyph-name="eacute" unicode="&#xe9;" horiz-adv-x="909" 
 />
    <glyph glyph-name="ecircumflex" unicode="&#xea;" horiz-adv-x="909" 
 />
    <glyph glyph-name="edieresis" unicode="&#xeb;" horiz-adv-x="909" 
 />
    <glyph glyph-name="igrave" unicode="&#xec;" horiz-adv-x="514" 
 />
    <glyph glyph-name="iacute" unicode="&#xed;" horiz-adv-x="514" 
 />
    <glyph glyph-name="icircumflex" unicode="&#xee;" horiz-adv-x="514" 
 />
    <glyph glyph-name="idieresis" unicode="&#xef;" horiz-adv-x="514" 
 />
    <glyph glyph-name="eth" unicode="&#xf0;" horiz-adv-x="1139" 
 />
    <glyph glyph-name="ntilde" unicode="&#xf1;" horiz-adv-x="1108" 
 />
    <glyph glyph-name="ograve" unicode="&#xf2;" horiz-adv-x="1010" 
 />
    <glyph glyph-name="oacute" unicode="&#xf3;" horiz-adv-x="1010" 
 />
    <glyph glyph-name="ocircumflex" unicode="&#xf4;" horiz-adv-x="1010" 
 />
    <glyph glyph-name="otilde" unicode="&#xf5;" horiz-adv-x="1010" 
 />
    <glyph glyph-name="odieresis" unicode="&#xf6;" horiz-adv-x="1010" 
 />
    <glyph glyph-name="divide" unicode="&#xf7;" 
d="M87 647v140h839l1 -1v-139h-840zM398 408l82 84q15 14 29 14q13 0 31 -16l80 -86q12 -16 12 -29q0 -15 -14 -31l-80 -88q-20 -20 -29 -20q-16 0 -29 14l-88 101q-10 13 -10 26q0 15 16 31zM398 1101l82 84q15 14 29 14q13 0 31 -16l80 -86q12 -16 12 -29q0 -15 -14 -31
l-80 -88q-20 -20 -29 -20q-16 0 -29 14l-88 101q-10 13 -10 26q0 15 16 31z" />
    <glyph glyph-name="oslash" unicode="&#xf8;" horiz-adv-x="1010" 
 />
    <glyph glyph-name="ugrave" unicode="&#xf9;" horiz-adv-x="1059" 
 />
    <glyph glyph-name="uacute" unicode="&#xfa;" horiz-adv-x="1059" 
 />
    <glyph glyph-name="ucircumflex" unicode="&#xfb;" horiz-adv-x="1059" 
 />
    <glyph glyph-name="udieresis" unicode="&#xfc;" horiz-adv-x="1059" 
 />
    <glyph glyph-name="yacute" unicode="&#xfd;" horiz-adv-x="868" 
 />
    <glyph glyph-name="thorn" unicode="&#xfe;" horiz-adv-x="1010" 
 />
    <glyph glyph-name="ydieresis" unicode="&#xff;" horiz-adv-x="868" 
 />
    <glyph glyph-name="dotlessi" unicode="&#x131;" horiz-adv-x="514" 
d="M328 223q0 -173 100 -173h46v-50h-442v50h46q100 0 100 173v432q0 77 -111 77h-48v44q222 69 261 182h48v-735z" />
    <glyph glyph-name="circumflex" unicode="&#x2c6;" horiz-adv-x="1024" 
d="M221 1079l232 355h118l232 -355h-58l-233 216l-233 -216h-58z" />
    <glyph glyph-name="caron" unicode="&#x2c7;" horiz-adv-x="1024" 
d="M221 1434h58l233 -214l233 214h58l-232 -356h-118z" />
    <glyph glyph-name="uni02C9" unicode="&#x2c9;" horiz-adv-x="1024" 
d="M254 1195v125h516v-125h-516z" />
    <glyph glyph-name="breve" unicode="&#x2d8;" horiz-adv-x="1024" 
d="M219 1349h51q17 -73 75 -107t167 -34t166 33.5t74 107.5h51q-20 -133 -94 -201.5t-197 -68.5q-122 0 -197 69t-96 201z" />
    <glyph glyph-name="dotaccent" unicode="&#x2d9;" horiz-adv-x="1024" 
d="M422 1289l69 72q6 6 13 9t14 3q6 0 12.5 -3t12.5 -9l71 -76q5 -4 7 -10t2 -14q-1 -9 -3 -15t-8 -12l-71 -76q-12 -11 -16 -13.5t-7 -2.5q-10 0 -16.5 2.5t-10.5 8.5l-75 87q-4 4 -6 9.5t-2 13.5q0 6 3 12.5t11 13.5z" />
    <glyph glyph-name="ring" unicode="&#x2da;" horiz-adv-x="1024" 
d="M411 1257q0 -42 29 -71t71 -29t71 29t29 71q0 40 -29.5 69.5t-70.5 29.5t-70.5 -29.5t-29.5 -69.5zM335 1257q0 75 51 126t125 51q76 0 127.5 -51.5t51.5 -125.5q0 -75 -51.5 -126.5t-127.5 -51.5q-74 0 -125 51.5t-51 126.5z" />
    <glyph glyph-name="ogonek" unicode="&#x2db;" horiz-adv-x="1024" 
d="M640 0q-71 -62 -110.5 -119.5t-39.5 -112.5q0 -47 27 -75t73 -28q40 0 69.5 15.5t49.5 48.5l28 -16q-36 -63 -90.5 -97t-119.5 -34q-70 0 -114 35.5t-44 90.5q0 76 60.5 156.5t161.5 135.5h49z" />
    <glyph glyph-name="tilde" unicode="&#x2dc;" horiz-adv-x="1024" 
d="M808 1382q-20 -103 -68.5 -154t-126.5 -51h-4q-50 0 -113 23q-66 24 -114 24q-39 0 -60.5 -20.5t-33.5 -71.5h-54q19 106 68 158.5t129 52.5q46 -1 113 -24q64 -23 112 -23h4q36 0 58 20t36 66h54z" />
    <glyph glyph-name="hungarumlaut" unicode="&#x2dd;" horiz-adv-x="1024" 
d="M217 1079l144 273q24 44 45.5 63t46.5 19q28 0 48 -20t20 -47q0 -16 -10.5 -35t-30.5 -41l-205 -212h-58zM502 1079l144 273q24 44 45.5 63t46.5 19q28 0 48 -20t20 -47q0 -16 -10.5 -35t-30.5 -41l-205 -212h-58z" />
    <glyph glyph-name="endash" unicode="&#x2013;" horiz-adv-x="1108" 
d="M56 419v120h996v-120h-996z" />
    <glyph glyph-name="emdash" unicode="&#x2014;" horiz-adv-x="2048" 
d="M0 419v120h2048v-120h-2048z" />
    <glyph glyph-name="quoteleft" unicode="&#x2018;" horiz-adv-x="557" 
d="M319 1016q-44 0 -88.5 65.5t-44.5 151.5q0 109 71 226.5t139 117.5v-43q-73 -43 -87 -190q0 -119 129 -161v-42z" />
    <glyph glyph-name="quoteright" unicode="&#x2019;" horiz-adv-x="557" 
d="M238 1577q44 0 88.5 -65.5t44.5 -151.5q0 -109 -71 -226.5t-139 -117.5v43q73 43 87 190q0 119 -129 161v42z" />
    <glyph glyph-name="quotesinglbase" unicode="&#x201a;" horiz-adv-x="557" 
d="M238 281q44 0 88.5 -65.5t44.5 -151.5q0 -109 -71 -226.5t-139 -117.5v43q73 43 87 190q0 119 -129 161v42z" />
    <glyph glyph-name="quotedblleft" unicode="&#x201c;" horiz-adv-x="910" 
d="M319 1016q-44 0 -88.5 65.5t-44.5 151.5q0 109 71 226.5t139 117.5v-43q-73 -43 -87 -190q0 -119 129 -161v-42zM672 1016q-44 0 -88.5 65.5t-44.5 151.5q0 109 71 226.5t139 117.5v-43q-73 -43 -87 -190q0 -119 129 -161v-42z" />
    <glyph glyph-name="quotedblright" unicode="&#x201d;" horiz-adv-x="910" 
d="M238 1577q44 0 88.5 -65.5t44.5 -151.5q0 -109 -71 -226.5t-139 -117.5v43q73 43 87 190q0 119 -129 161v42zM591 1577q44 0 88.5 -65.5t44.5 -151.5q0 -109 -71 -226.5t-139 -117.5v43q73 43 87 190q0 119 -129 161v42z" />
    <glyph glyph-name="quotedblbase" unicode="&#x201e;" horiz-adv-x="910" 
d="M238 281q44 0 88.5 -65.5t44.5 -151.5q0 -109 -71 -226.5t-139 -117.5v43q73 43 87 190q0 119 -129 161v42zM591 281q44 0 88.5 -65.5t44.5 -151.5q0 -109 -71 -226.5t-139 -117.5v43q73 43 87 190q0 119 -129 161v42z" />
    <glyph glyph-name="dagger" unicode="&#x2020;" 
d="M486 1022q-8 97 -54 178q-57 101 -57 129q0 49 36 78.5t96 29.5q57 0 94.5 -27.5t37.5 -71.5q0 -32 -55 -137q-46 -85 -55 -179q96 8 177 54q101 57 129 57q49 0 79 -36t30 -96q0 -57 -27.5 -94.5t-72.5 -37.5q-32 0 -136 55q-85 46 -179 57q8 -176 110 -277
q-106 -460 -112 -974h-38q-6 514 -114 974q102 101 111 277q-96 -10 -178 -55q-101 -57 -129 -57q-49 0 -78.5 36t-29.5 96q0 57 27.5 94.5t71.5 37.5q32 0 137 -56q85 -46 179 -55z" />
    <glyph glyph-name="daggerdbl" unicode="&#x2021;" 
d="M528 186q94 11 179 57q104 55 136 55q45 0 72.5 -37.5t27.5 -94.5q0 -60 -30 -96t-79 -36q-28 0 -129 57q-81 46 -177 54q9 -94 55 -179q55 -105 55 -137q0 -44 -37.5 -71.5t-94.5 -27.5q-60 0 -96 29.5t-36 78.5q0 28 57 129q46 81 54 178q-94 -9 -179 -55
q-105 -56 -137 -56q-44 0 -71.5 37.5t-27.5 94.5q0 60 29.5 96t78.5 36q28 0 129 -57q82 -45 178 -55q-9 226 -111 398q102 171 111 397q-96 -10 -178 -55q-101 -57 -129 -57q-49 0 -78.5 36t-29.5 96q0 57 27.5 94.5t71.5 37.5q32 0 137 -56q85 -46 179 -55q-8 97 -54 178
q-57 101 -57 129q0 49 36 78.5t96 29.5q57 0 94.5 -27.5t37.5 -71.5q0 -32 -55 -137q-46 -85 -55 -179q96 8 177 54q101 57 129 57q49 0 79 -36t30 -96q0 -57 -27.5 -94.5t-72.5 -37.5q-32 0 -136 55q-85 46 -179 57q8 -226 110 -397q-102 -172 -110 -398z" />
    <glyph glyph-name="bullet" unicode="&#x2022;" horiz-adv-x="1024" 
d="M216 718q0 123 87 209t210 86q122 0 208.5 -86.5t86.5 -208.5t-87.5 -209.5t-209.5 -87.5q-123 0 -209 87t-86 210z" />
    <glyph glyph-name="ellipsis" unicode="&#x2026;" horiz-adv-x="2048" 
d="M145 167l82 84q15 14 29 14q13 0 31 -16l80 -86q12 -16 12 -29q0 -15 -14 -31l-80 -88q-20 -20 -29 -20q-16 0 -29 14l-88 101q-10 13 -10 26q0 15 16 31zM828 167l82 84q15 14 29 14q13 0 31 -16l80 -86q12 -16 12 -29q0 -15 -14 -31l-80 -88q-20 -20 -29 -20
q-16 0 -29 14l-88 101q-10 13 -10 26q0 15 16 31zM1511 167l82 84q15 14 29 14q13 0 31 -16l80 -86q12 -16 12 -29q0 -15 -14 -31l-80 -88q-20 -20 -29 -20q-16 0 -29 14l-88 101q-10 13 -10 26q0 15 16 31z" />
    <glyph glyph-name="guilsinglleft" unicode="&#x2039;" horiz-adv-x="631" 
d="M174 479l342 303h14v-37l-205 -266l205 -266v-37h-14z" />
    <glyph glyph-name="guilsinglright" unicode="&#x203a;" horiz-adv-x="631" 
d="M115 176h-14v37l205 266l-205 266v37h14l342 -303z" />
    <glyph glyph-name="fraction" unicode="&#x2044;" horiz-adv-x="342" 
d="M-342 -29l940 1461h84l-938 -1461h-86z" />
    <glyph glyph-name="fraction" unicode="&#x2215;" horiz-adv-x="342" 
d="M-342 -29l940 1461h84l-938 -1461h-86z" />
    <glyph glyph-name="franc" unicode="&#x20a3;" 
d="M247 357h-194v60h194v732q0 235 -103 235h-96v50h915l103 -231h-49q-59 182 -190 182l-316 -1q-102 0 -102 -235v-352h361q100 0 100 63v58h50v-342h-50v60q0 62 -100 62h-361v-281h194v-60h-194v-72q0 -235 102 -235h97v-50h-560v50h96q103 0 103 235v72z" />
    <glyph glyph-name="lira" unicode="&#x20a4;" 
d="M748 1347q-72 31 -160 31h-2q-100 0 -190 -101q-84 -93 -84 -241q0 -15 1 -30q0 -106 33 -213h380v-60h-360q12 -30 26 -60h352v-60h-321q35 -63 35 -138q0 -161 -162 -375h402q130 0 189 132l49 -1l-103 -231h-719l1 50q187 238 187 418q0 77 -34 143l-2 2h-172v60h143
q-14 31 -26 60h-135v60h113q-36 107 -36 193q0 226 123.5 347t310.5 121q75 0 185.5 -14t110.5 -34v-161h-58q-5 61 -77 102z" />
    <glyph glyph-name="peseta" unicode="&#x20a7;" horiz-adv-x="2028" 
d="M409 1384v-662q3 -9 7 -17q41 -102 108 -153q57 -44 116 -44q10 0 19 1q68 8 127 75t87 177q22 87 22 179q0 24 -1 47q-7 116 -49.5 218.5t-108.5 144.5q-56 35 -112 35q-10 0 -21 -1h-194zM1496 908h-179v-685q0 -81 34 -119q28 -31 81 -37l-71 192l49 1
q55 -130 114 -174q57 -44 127 -44h7q92 0 151 52q59 53 59 136q0 102 -259 226q-101 52 -144 112t-43 145q0 121 73 194zM1039 910q-7 -101 -48 -194q-50 -114 -141 -177.5t-190 -63.5q-100 0 -191 64q-33 22 -60 51v-305q0 -235 102 -235h97v-50h-560v50h96q103 0 103 235
v864q0 235 -103 235h-96v50h618q92 -2 181 -62q91 -62 143 -177q50 -113 51 -237h10q216 0 216 355h50v-355h259q42 19 110 20h2q54 0 133.5 -13.5t79.5 -33.5v-159h-42q-4 66 -65.5 108t-133.5 42q-64 0 -102.5 -36.5t-38.5 -96.5q0 -108 235 -220q122 -55 167.5 -117.5
t45.5 -153.5q0 -140 -83 -231q-102 -84 -228 -86q-58 0 -105 11q-28 6 -56 6q-18 0 -36 -3q-28 -5 -59 -5q-124 0 -173.5 57t-57.5 176h-1v687h-129z" />
    <glyph glyph-name="Euro" unicode="&#x20ac;" 
d="M140 372q-62 135 -76 281h-108l17 60h87v29q0 16 1 31h-71l17 60h58q14 145 76 281q81 178 226 274t298 96q43 0 87 -8q40 -10 82 -29q8 -6 16 -6q20 0 34 45h41l84 -281l-40 -1q-49 134 -138 178q-43 22 -81 32v3q-50 16 -101 16q-17 0 -34 -2q-120 -12 -226 -113.5
t-157 -273.5q-32 -104 -39 -211h706l-17 -60h-692q0 -30 2 -60h674l-17 -60h-652q17 -158 83 -298q74 -157 193 -236q102 -68 216 -69q186 3 256 91q74 91 74 185h48v-143q0 -70 -111 -127q-105 -54 -267 -56q-181 0 -325.5 98t-223.5 274z" />
    <glyph glyph-name="afii61352" unicode="&#x2116;" horiz-adv-x="2271" 
 />
    <glyph glyph-name="trademark" unicode="&#x2122;" horiz-adv-x="1497" 
 />
    <glyph glyph-name="partialdiff" unicode="&#x2202;" 
d="M232 537q0 -41 5 -79q14 -122 61.5 -230t118.5 -165q64 -53 128 -53q6 0 13 1q70 5 127.5 70.5t80.5 179.5q16 73 16 149q0 42 -5 85q-14 122 -62.5 231.5t-119.5 165.5q-65 50 -128 50h-11q-68 -5 -126 -69.5t-82 -178.5q-16 -84 -16 -157zM937 477q0 -132 -56.5 -251
t-159 -185t-214.5 -66t-214.5 66t-159 185t-56.5 251q0 131 58 251t161 185t211 65q109 0 212 -65q29 -18 54 -41q-84 235 -233.5 377t-326.5 155v55q306 0 515 -285t209 -697z" />
    <glyph glyph-name="Delta" unicode="&#x2206;" horiz-adv-x="1081" 
d="M514 1195l-406 -1072h801zM547 1434l526 -1434h-1067z" />
    <glyph glyph-name="product" unicode="&#x220f;" horiz-adv-x="1515" 
d="M511 1384q-102 0 -102 -235v-1281q0 -235 102 -235h97v-51h-560v51h96q103 0 103 235v1281q0 235 -103 235h-96v50h1419v-50h-97q-102 0 -102 -235v-1281q0 -235 102 -235h97v-50h-560v50h96q103 0 103 235v1281q0 235 -103 235h-492z" />
    <glyph glyph-name="summation" unicode="&#x2211;" horiz-adv-x="1206" 
d="M1059 548l-788 -914h635q130 0 189 182h49l-103 -232h-921v50q62 0 106 53l663 781l-663 859q-44 57 -106 57v50h921l103 -232h-49q-59 182 -189 182h-485z" />
    <glyph glyph-name="minus" unicode="&#x2212;" 
d="M87 647v140h839l1 -1v-139h-840z" />
    <glyph glyph-name="radical" unicode="&#x221a;" 
d="M181 0l-164 359l74 35l85 -185l728 1470h150v-60h-72z" />
    <glyph glyph-name="infinity" unicode="&#x221e;" 
d="M439 755q-15 103 -74 133q-46 22 -84 22q-12 0 -23 -2q-49 -10 -92.5 -44.5t-65.5 -84.5q-20 -46 -20 -90v-8q2 -48 27.5 -89t71.5 -58q29 -11 61 -11q16 0 33 3q47 10 90.5 43.5t75.5 185.5zM466 687q12 -96 94 -153q69 -48 123 -48q11 0 21 2q62 12 117.5 52t84.5 101
q26 54 26 108v11q-2 60 -35.5 108.5t-91.5 68.5q-37 13 -76 13q-22 0 -44 -4q-67 -9 -127 -62t-92 -197zM450 827q9 35 21 69q34 88 95 137t128 49t128 -48t95 -135t34 -182t-34 -182t-95 -135t-128 -48t-128 49t-95 136q-12 35 -21 70q-5 -21 -12 -41q-27 -73 -74 -113
t-99 -40t-100 41t-73.5 113.5t-25.5 149.5q0 76 25.5 149t73.5 114t100 41t99 -40t74 -112q7 -21 12 -42z" />
    <glyph glyph-name="integral" unicode="&#x222b;" horiz-adv-x="665" 
d="M-12 -281q-60 0 -60 29v159h36q1 -43 34.5 -64.5t63.5 -21.5h1q82 0 115 162q32 162 40 316l70 734l8 62q27 238 135 429.5t234 191.5q60 0 60 -29v-159h-36q-1 43 -35 64.5t-63 21.5q-71 0 -116 -155.5t-49 -363.5l-73 -767q-20 -231 -130.5 -420t-234.5 -189z" />
    <glyph glyph-name="approxequal" unicode="&#x2248;" 
d="M923 1053v-156q-63 -72 -122 -97.5t-116 -25.5q-60 0 -177.5 48.5t-176.5 48.5q-51 0 -107.5 -28t-129.5 -112v156q64 73 123 99t114 26q64 0 181.5 -49.5t172.5 -49.5q52 0 108.5 28t129.5 112zM923 705v-156q-63 -72 -122 -97.5t-116 -25.5q-60 0 -177.5 48.5
t-176.5 48.5q-51 0 -107.5 -28t-129.5 -112v156q64 73 123 99t114 26q64 0 181.5 -49.5t172.5 -49.5q52 0 108.5 28t129.5 112z" />
    <glyph glyph-name="lessequal" unicode="&#x2264;" 
d="M927 1074l-625 -359l625 -355v-167l-840 481v83l840 484v-167zM87 1v140h839l1 -1v-139h-840z" />
    <glyph glyph-name="greaterequal" unicode="&#x2265;" 
d="M87 1241l840 -484v-83l-840 -481v167l625 355l-625 359v167zM87 2v140h839l1 -1v-139h-840z" />
    <glyph glyph-name="uniF001" unicode="&#xf001;" horiz-adv-x="1073" 
 />
    <glyph glyph-name="uniF001" unicode="&#xfb01;" horiz-adv-x="1073" 
 />
    <glyph glyph-name="uniF002" unicode="&#xf002;" horiz-adv-x="1081" 
 />
    <glyph glyph-name="uniF002" unicode="&#xfb02;" horiz-adv-x="1081" 
 />
  </font>
</defs>
</svg>
